<?xml version="1.0" encoding="UTF-8" standalone="no"?>
<!-- Created with Inkscape (http://www.inkscape.org/) -->

<svg
   width="128.08029mm"
   height="39.687553mm"
   viewBox="0 0 128.08029 39.687553"
   version="1.1"
   id="svg1"
   xmlns:inkscape="http://www.inkscape.org/namespaces/inkscape"
   xmlns:sodipodi="http://sodipodi.sourceforge.net/DTD/sodipodi-0.dtd"
   xmlns="http://www.w3.org/2000/svg"
   xmlns:svg="http://www.w3.org/2000/svg">
  <sodipodi:namedview
     id="namedview1"
     pagecolor="#ffffff"
     bordercolor="#000000"
     borderopacity="0.25"
     inkscape:showpageshadow="2"
     inkscape:pageopacity="0.0"
     inkscape:pagecheckerboard="0"
     inkscape:deskcolor="#d1d1d1"
     inkscape:document-units="mm" />
  <defs
     id="defs1" />
  <g
     inkscape:label="Calque 1"
     inkscape:groupmode="layer"
     id="layer1"
     transform="translate(-84.53525,-5.5798405)">
    <path
       d="m 148.07141,5.581756 c -10.71747,0.2718183 -19.3399,9.06073 -19.3399,19.842819 0,10.953233 8.89,19.842818 19.84375,19.842818 10.95375,0 19.84375,-8.889585 19.84375,-19.842818 0,-10.953234 -8.89,-19.842819 -19.84375,-19.842819 -0.17115,0 -0.33373,-0.00431 -0.50385,0 z m -0.0194,3.4104844 c 0.17582,-0.00557 0.34605,0 0.52322,0 9.07108,-10e-8 16.43311,7.3616846 16.43311,16.4323346 -1e-5,9.070649 -7.36203,16.432334 -16.43311,16.432334 -9.07107,-1e-6 -16.43311,-7.361685 -16.43311,-16.432334 0,-8.893489 7.08355,-16.1524994 15.90989,-16.4323346 z"
       style="display:inline;fill:#000000;fill-opacity:1;fill-rule:nonzero;stroke:none;stroke-width:160.921;stroke-linecap:butt;stroke-linejoin:round;stroke-miterlimit:4;stroke-dasharray:none;stroke-dashoffset:0;stroke-opacity:1"
       id="path3742" />
    <path
       d="m 151.4433,15.463199 c 0,1.583901 -1.28407,2.867907 -2.86804,2.867907 -1.58398,0 -2.86804,-1.284006 -2.86804,-2.867907 0,-1.583902 1.28406,-2.867908 2.86804,-2.867908 1.58397,0 2.86804,1.284006 2.86804,2.867908 z"
       style="display:inline;fill:#000000;fill-opacity:1;fill-rule:evenodd;stroke:none;stroke-width:0.0186031;stroke-linecap:butt;stroke-linejoin:miter;stroke-miterlimit:4;stroke-dasharray:none;stroke-dashoffset:0;stroke-opacity:1"
       id="path2838" />
    <path
       d="m 145.60808,38.253858 h 5.93436 v -9.536276 h 1.79401 c 0,0 -6.8e-4,-6.814995 0,-7.887589 -0.002,-0.28295 0.0255,-0.846456 -0.38493,-1.256912 -0.41048,-0.410456 -0.96453,-0.385573 -1.25697,-0.384913 -0.29245,6.82e-4 -5.94613,6.82e-4 -6.23857,0 -0.29245,-6.82e-4 -0.8465,-0.02554 -1.25698,0.384913 -0.41047,0.410456 -0.38316,0.973962 -0.38493,1.256912 6.9e-4,1.072594 0,7.887589 0,7.887589 h 1.79401 z"
       style="display:inline;fill:#000000;fill-opacity:1;fill-rule:evenodd;stroke:none;stroke-width:0.620103px;stroke-linecap:butt;stroke-linejoin:miter;stroke-opacity:1"
       id="path3746" />
    <path
       d="m 104.35205,5.579904 c -5.444711,0 -10.235408,2.011989 -13.937538,5.762943 -3.810611,3.860539 -5.879264,8.862019 -5.879264,14.081417 0,5.273252 2.014099,10.1664 5.825337,13.971833 3.811237,3.806059 8.764969,5.871275 13.991465,5.871275 5.22588,0 10.28934,-2.065842 14.20906,-5.925755 3.70213,-3.64262 5.66168,-8.481288 5.66168,-13.917979 0,-5.382211 -1.95955,-10.275358 -5.71623,-14.026938 -3.81124,-3.804807 -8.71042,-5.816796 -14.15451,-5.816796 z m 0.0539,3.5881409 c 4.46463,0 8.4389,1.6851111 11.54157,4.7841881 3.04874,3.044597 4.68159,7.067949 4.68159,11.471405 0,4.457937 -1.57893,8.372329 -4.62704,11.363073 -3.2124,3.153556 -7.34971,4.838667 -11.59612,4.838667 -4.30034,0 -8.329166,-1.685111 -11.432459,-4.784188 -3.103293,-3.099076 -4.84525,-7.176282 -4.84525,-11.416926 0,-4.295123 1.741957,-8.372328 4.84525,-11.525885 3.048739,-3.099076 6.968458,-4.7303341 11.432459,-4.7303341 z"
       style="fill-rule:evenodd;stroke-width:0.626628"
       id="path3568" />
    <path
       d="m 104.15014,22.126682 c -1.12243,-2.043926 -3.03745,-2.857363 -5.260359,-2.857363 -3.235602,0 -5.810915,2.28564 -5.810915,6.154945 0,3.934431 2.421058,6.154946 5.92065,6.154946 2.245484,0 4.160504,-1.231115 5.216464,-3.099077 l -2.46495,-1.253031 c -0.55055,1.318782 -1.38704,1.714542 -2.443004,1.714542 -1.827237,0 -2.663727,-1.516662 -2.663727,-3.516753 0,-2.000092 0.704809,-3.51738 2.663727,-3.51738 0.52798,0 1.584564,0.286174 2.200964,1.604331 z"
       style="fill-rule:evenodd;stroke-width:0.626628"
       id="path3570" />
    <path
       d="m 115.61333,22.126682 c -1.12243,-2.043926 -3.03746,-2.857363 -5.26036,-2.857363 -3.23561,0 -5.81092,2.28564 -5.81092,6.154945 0,3.934431 2.42106,6.154946 5.92128,6.154946 2.24485,0 4.15988,-1.231115 5.21646,-3.099077 l -2.46495,-1.253031 c -0.55055,1.318782 -1.38642,1.714542 -2.443,1.714542 -1.82724,0 -2.66373,-1.516662 -2.66373,-3.516753 0,-2.000092 0.70481,-3.51738 2.66373,-3.51738 0.52798,0 1.58456,0.286174 2.20096,1.604331 z"
       style="fill-rule:evenodd;stroke-width:0.626628"
       id="path3572" />
    <path
       d="m 192.26794,5.581756 c -10.71747,0.2718183 -19.3399,9.06073 -19.3399,19.842819 0,10.953233 8.89,19.842818 19.84375,19.842818 10.95375,0 19.84375,-8.889585 19.84375,-19.842818 0,-10.953234 -8.89,-19.842819 -19.84375,-19.842819 -0.17115,0 -0.33373,-0.00431 -0.50385,0 z m -0.0194,3.4104844 c 0.17582,-0.00557 0.34605,0 0.52322,0 9.07108,-10e-8 16.43311,7.3616846 16.43311,16.4323346 -1e-5,9.070649 -7.36203,16.432334 -16.43311,16.432334 -9.07107,-1e-6 -16.43311,-7.361685 -16.43311,-16.432334 0,-8.893489 7.08355,-16.1524994 15.90989,-16.4323346 z"
       style="fill:#000000;fill-opacity:1;fill-rule:nonzero;stroke:none;stroke-width:160.921;stroke-linecap:butt;stroke-linejoin:round;stroke-miterlimit:4;stroke-dasharray:none;stroke-dashoffset:0;stroke-opacity:1"
       id="path1334" />
    <path
       d="m 184.16195,22.190534 h -1.69961 l 3.85636,4.321239 3.85635,-4.321239 h -1.39145 c 0.30144,-2.108175 2.15607,-3.464075 4.29825,-3.294218 0.0847,0.0067 0.1661,0 0.25192,0 3.48967,0 4.86595,2.639012 4.98032,6.530303 0.11935,4.06108 -2.23459,6.585569 -4.98032,6.530303 -2.89805,-0.05718 -3.99606,-1.443262 -4.41833,-3.546129 h -5.17411 c 0.85153,4.843651 4.41763,7.684154 9.47617,7.692968 5.72652,0.01008 9.86374,-4.780475 9.86374,-10.677142 0,-6.296928 -4.13579,-10.677142 -9.86374,-10.677142 -0.17006,0 -0.33589,-0.0092 -0.50385,0 -0.0407,0.0022 -0.0756,-6.82e-4 -0.11627,0 -3.57944,0.05951 -8.43541,2.567005 -8.43543,7.441057 z"
       style="fill:#000000;fill-opacity:1;fill-rule:nonzero;stroke:none;stroke-width:160.921;stroke-linecap:butt;stroke-linejoin:round;stroke-miterlimit:4;stroke-dasharray:none;stroke-dashoffset:0;stroke-opacity:1"
       id="path2371" />
  </g>
</svg>
