<?xml version="1.0" encoding="UTF-8" standalone="no"?>
<!-- Created with Inkscape (http://www.inkscape.org/) -->

<svg
   version="1.1"
   id="svg1"
   width="546.1333"
   height="546.1333"
   viewBox="0 0 546.1333 546.1333"
   sodipodi:docname="icone_cartes_font_awesome2.png"
   xmlns:inkscape="http://www.inkscape.org/namespaces/inkscape"
   xmlns:sodipodi="http://sodipodi.sourceforge.net/DTD/sodipodi-0.dtd"
   xmlns="http://www.w3.org/2000/svg"
   xmlns:svg="http://www.w3.org/2000/svg">
  <defs
     id="defs1" />
  <sodipodi:namedview
     id="namedview1"
     pagecolor="transparent"
     bordercolor="currentColor"
     borderopacity="0.25"
     inkscape:showpageshadow="2"
     inkscape:pageopacity="0.0"
     inkscape:pagecheckerboard="0"
     inkscape:deskcolor="#d1d1d1" />
  <g
     inkscape:groupmode="layer"
     inkscape:label="Image"
     id="g1">
    <path
       style="fill:currentColor;stroke:none"
       d="M 406.39998,0.45266924 C 370.9534,5.1067705 332.47609,-5.4638669 297.59998,2.8312824 288.28003,5.048014 279.76232,10.143912 273.16294,17.082291 268.854,21.612564 266.16846,27.782355 260.2502,30.433755 234.319,42.051039 206.96962,50.976885 180.26666,60.743226 167.08718,65.563505 151.3835,69.027405 139.73333,77.03538 126.99627,85.790457 125.39937,97.547585 116.87489,108.78437 110.14413,117.6567 98.928396,125.51135 90.624685,133.02551 73.48031,148.53977 55.046766,162.8272 37.333331,177.69546 24.205683,188.71454 11.235508,198.35568 6.1028805,215.46665 -4.3611407,250.35122 26.20374,275.61496 46.133331,299.73332 96.982823,361.27029 148.77489,422.0587 200.09546,483.19997 c 19.22044,22.89847 42.10488,63.46041 77.23786,59.42799 18.71533,-2.14808 29.7386,-12.82822 43.73333,-24.49137 18.18151,-15.15244 36.40179,-30.30088 54.38437,-45.6889 8.3471,-7.1427 15.52806,-16.87298 25.61562,-21.73577 42.2805,-20.38174 116.28971,16.63805 140.46585,-36.84528 5.50016,-12.16764 4.60081,-25.40019 4.60081,-38.4 V 319.99998 111.99999 c 0,-29.81077 8.21276,-72.350057 -13.96295,-95.995889 C 510.94294,-6.6305986 474.96176,0 446.93331,0 433.63773,0 419.58874,-1.2790364 406.39998,0.45266924 m 3.2,51.05185276 c 19.76243,-2.331738 40.89716,-0.304525 60.79999,-0.304525 5.73591,0 17.41683,-2.202506 22.06091,1.710286 3.72063,3.134766 2.47242,9.984733 2.47242,14.289713 v 40.533334 165.33332 90.66666 c 0,8.24655 3.68526,26.49466 -7.47076,28.55638 -14.99418,2.77103 -32.73851,0.24362 -47.9959,0.24362 -28.11819,0 -56.11657,1.06667 -84.26666,1.06667 h -30.93333 c -3.57403,-2.3e-4 -9.21097,0.93883 -12.00824,-1.85843 -3.8431,-3.84307 -1.85843,-14.48298 -1.85843,-19.47491 V 317.86665 121.59999 73.599996 c 0,-5.502572 -1.68395,-14.457584 2.5959,-18.737434 5.26188,-5.261881 19.33366,-2.595898 26.2041,-2.595898 23.18076,0 47.38431,1.95345 70.4,-0.762142 m -150.4,34.895473 V 370.13331 c -11.21982,-17.82978 -16.27027,-43.10188 -23.52345,-62.93333 -15.07609,-41.2207 -30.31012,-82.39889 -45.07161,-123.73332 -5.21352,-14.5987 -10.3861,-29.23643 -15.87654,-43.73333 -1.87981,-4.96338 -6.31371,-12.7739 -4.1967,-18.08724 2.88773,-7.24769 15.91181,-9.47377 22.53498,-11.77943 21.8101,-7.59251 43.62709,-18.259927 66.13332,-23.466665 m -127.99999,78.933325 70.45679,194.13333 28.74321,79.99999 C 214.52222,428.04639 202.44296,407.38595 189.72673,392.53331 158.3316,355.86362 127.05498,318.93348 96.452664,281.59998 86.769917,269.78745 76.888122,258.13781 67.113574,246.39999 c -4.0342,-4.8445 -10.436461,-10.06019 -9.265018,-17.05105 1.285299,-7.67031 13.341975,-14.46367 18.951439,-19.12919 16.670117,-13.86494 39.128885,-27.71992 52.266665,-44.88643 h 2.13333 m 297.75799,156.82962 c -6.09723,3.61015 -3.35801,18.44003 -3.35801,24.50371 0,5.36419 -2.24212,17.50768 1.85844,21.60823 2.61403,2.61403 7.59765,1.85713 10.94156,1.85843 8.20261,0.003 26.79938,3.47168 33.67077,-1.25762 5.1376,-3.536 2.5959,-17.79205 2.5959,-23.27571 0,-5.73594 2.2025,-17.4168 -1.71029,-22.0609 -2.43519,-2.89034 -6.63102,-2.46547 -10.02304,-2.47243 -8.68474,-0.0178 -26.42155,-3.37624 -33.97533,1.09629 z"
       id="path1"
       inkscape:label="image vectorisee" />
  </g>
</svg>
