<?xml version="1.0" encoding="UTF-8" standalone="no"?>
<!-- Created with Inkscape (http://www.inkscape.org/) -->

<svg
   width="126.0993mm"
   height="111.35754mm"
   viewBox="0 0 126.0993 111.35754"
   version="1.1"
   id="svg1"
   xmlns:inkscape="http://www.inkscape.org/namespaces/inkscape"
   xmlns:sodipodi="http://sodipodi.sourceforge.net/DTD/sodipodi-0.dtd"
   xmlns="http://www.w3.org/2000/svg"
   xmlns:svg="http://www.w3.org/2000/svg">
  <sodipodi:namedview
     id="namedview1"
     pagecolor="#ffffff"
     bordercolor="#000000"
     borderopacity="0.25"
     inkscape:showpageshadow="2"
     inkscape:pageopacity="0.0"
     inkscape:pagecheckerboard="0"
     inkscape:deskcolor="#d1d1d1"
     inkscape:document-units="mm" />
  <defs
     id="defs1" />
  <g
     inkscape:label="Calque 1"
     inkscape:groupmode="layer"
     id="layer1"
     transform="translate(7.6729166,-18.256208)">
    <path
       style="fill:#000000;stroke-width:0.264583"
       d="m 19.568583,129.57359 c -0.179422,-0.0188 -0.3175,-0.0791 -0.3175,-0.13881 0,-0.0581 -0.152578,-0.17291 -0.339059,-0.25519 -0.385109,-0.16991 -0.502491,-0.34022 -0.648782,-0.94133 -0.296458,-1.21815 -0.605806,-2.08739 -0.781521,-2.19599 -0.05132,-0.0317 -0.09331,-0.1621 -0.09331,-0.28974 0,-0.12763 -0.03148,-0.26826 -0.06995,-0.3125 -0.03847,-0.0442 -0.12296,-0.25188 -0.187757,-0.46143 -0.0648,-0.20955 -0.166436,-0.47625 -0.225866,-0.59267 -0.05943,-0.11642 -0.108289,-0.25455 -0.108578,-0.30696 -2.64e-4,-0.0524 -0.100118,-0.31912 -0.22185,-0.59267 -0.513816,-1.15464 -0.97895,-2.58241 -1.093279,-3.35591 -0.03278,-0.22176 -0.08998,-0.42199 -0.127127,-0.44494 -0.03714,-0.023 -0.09429,-0.20346 -0.12699,-0.40113 -0.0327,-0.19766 -0.131268,-0.50942 -0.219035,-0.69279 -0.08777,-0.18337 -0.159573,-0.36619 -0.159573,-0.40626 0,-0.0401 -0.0762,-0.23057 -0.169333,-0.42333 -0.09313,-0.19277 -0.169334,-0.42004 -0.169334,-0.50506 0,-0.085 -0.03555,-0.22074 -0.079,-0.3016 -0.282868,-0.52641 -0.598331,-1.25569 -0.598331,-1.38321 0,-0.0829 -0.03532,-0.17264 -0.07849,-0.19932 -0.04317,-0.0267 -0.1227,-0.19086 -0.176733,-0.36483 -0.05403,-0.17398 -0.171114,-0.47783 -0.260178,-0.67523 -0.08906,-0.1974 -0.161933,-0.40932 -0.161933,-0.47093 0,-0.0616 -0.0762,-0.26974 -0.169334,-0.4625 -0.09313,-0.19277 -0.169333,-0.4281 -0.169333,-0.52296 0,-0.30817 -0.353415,-1.47584 -0.578107,-1.91004 -0.29868,-0.57717 -0.403775,-0.87635 -0.654304,-1.86266 -0.240982,-0.94874 -0.395091,-1.4109 -0.678817,-2.03576 C 10.59807,106.39147 9.9705116,104.75649 9.7692037,104.10827 9.6679741,103.7823 9.4565395,103.1727 9.2993489,102.7536 9.1421584,102.3345 8.861831,101.51535 8.6763988,100.93327 8.4909669,100.35118 8.2406039,99.627282 8.120037,99.324598 7.9994701,99.021915 7.8422372,98.564715 7.7706306,98.308598 7.3061324,96.647219 7.1666334,96.177949 6.9274805,95.472265 6.1654329,93.223648 5.7421549,91.986359 5.4792525,91.238932 5.3154574,90.773265 5.1300617,90.220815 5.0672618,90.011265 4.8681761,89.34696 4.1109032,87.148431 3.9817354,86.859744 3.7261532,86.288527 2.995454,84.344316 2.6523584,83.322599 2.4568933,82.740515 2.2305454,82.111865 2.1493633,81.925599 1.7247859,80.951435 0.92265789,78.741156 0.27506505,76.760932 c -0.13705813,-0.4191 -0.28128224,-0.85725 -0.32049799,-0.973667 -0.03921548,-0.116416 -0.21364442,-0.649816 -0.3876196,-1.185333 -0.17397518,-0.535517 -0.42474356,-1.259417 -0.55726303,-1.608667 -0.13251943,-0.34925 -0.43774493,-1.2446 -0.67827893,-1.989666 -0.240534,-0.745067 -0.5292447,-1.621367 -0.6415797,-1.947334 -0.7870245,-2.283745 -0.9714169,-2.834981 -1.2886332,-3.852333 -0.3778562,-1.211831 -0.6045092,-1.848898 -0.86569,-2.433243 -0.088231,-0.1974 -0.1604197,-0.408855 -0.1604197,-0.4699 0,-0.06105 -0.034274,-0.147185 -0.076164,-0.191423 -0.04189,-0.04424 -0.2892894,-0.709084 -0.5497756,-1.477434 -0.7973626,-2.35196 -0.90376,-2.660938 -0.9767014,-2.836333 -0.038731,-0.09313 -0.1296961,-0.321733 -0.2021441,-0.508 -0.072448,-0.186267 -0.3203157,-0.814917 -0.5508172,-1.397 -0.4067723,-1.027218 -0.6923974,-1.992434 -0.6923974,-2.339827 0,-0.386352 0.2719964,-0.967131 0.5107617,-1.090602 0.1315807,-0.06804 0.2630284,-0.198673 0.2921058,-0.290287 0.05829,-0.183656 0.9319318,-0.766617 1.1488724,-0.766617 0.075187,0 0.1612273,-0.02453 0.1911993,-0.0545 0.1027645,-0.102764 1.0329191,-0.458134 2.3020607,-0.879512 0.6985,-0.231915 1.3462,-0.457549 1.4393334,-0.501406 0.1817428,-0.08559 3.8990896,-1.428319 4.7413332,-1.7126 0.2794,-0.09431 0.5842,-0.202341 0.6773333,-0.240073 0.093133,-0.03773 0.4741334,-0.190883 0.8466667,-0.340333 0.3725333,-0.149448 0.8297333,-0.339913 1.016,-0.423252 0.1862667,-0.08334 0.4910667,-0.195614 0.6773333,-0.249494 0.1862667,-0.05388 0.4148667,-0.130931 0.508,-0.171225 0.2140011,-0.09258 1.5576227,-0.604636 2.1166667,-0.806659 0.2328333,-0.08414 0.4804833,-0.197099 0.5503333,-0.251023 0.06985,-0.05392 0.29845,-0.147053 0.508,-0.206955 0.20955,-0.0599 0.5334,-0.179141 0.719666,-0.26498 0.186267,-0.08584 1.081617,-0.404119 1.989667,-0.707284 3.268625,-1.091277 4.193757,-1.406721 4.360333,-1.48676 0.363961,-0.174879 1.859018,-0.659844 2.921,-0.947507 0.34925,-0.09461 0.671195,-0.206153 0.715434,-0.247891 0.04424,-0.04173 0.261204,-0.07588 0.482144,-0.07588 0.370645,0 0.434303,0.03311 0.823095,0.42808 0.427593,0.434393 0.527061,0.697159 0.49148,1.298374 -0.01714,0.289777 -0.07496,0.327869 -0.903486,0.595329 -0.883719,0.285276 -2.45286,0.839742 -3.259667,1.151826 -0.708154,0.273923 -1.898017,0.692235 -3.048,1.07156 -0.372533,0.122883 -0.696383,0.246962 -0.719666,0.275733 -0.02328,0.02877 -0.385234,0.159716 -0.804334,0.290994 -0.4191,0.131278 -0.851193,0.27382 -0.960207,0.316759 -0.376068,0.14813 -1.243266,0.430887 -1.958134,0.638463 -0.394353,0.114512 -0.7563023,0.239123 -0.8043318,0.276916 -0.04803,0.0378 -0.4492766,0.189447 -0.8916599,0.337002 -0.9515538,0.317392 -2.1746355,0.750803 -2.413,0.855073 -0.9608184,0.420296 -2.1907682,0.914355 -2.5399999,1.020294 -0.1397,0.04238 -0.3302,0.113676 -0.4233334,0.158443 -0.260818,0.125365 -2.0505173,0.810371 -2.66699992,1.020794 -0.30268333,0.103312 -0.62653332,0.220957 -0.71966666,0.261433 -0.47009181,0.204298 -1.20737575,0.472672 -2.20133332,0.801293 -1.4585225,0.482216 -2.2999784,0.778084 -2.6946301,0.94747 -0.3063923,0.131503 -0.3210028,0.154826 -0.2693747,0.430027 0.030024,0.160042 0.086564,0.352968 0.1256448,0.428726 0.2196941,0.425881 0.7188412,1.774161 0.7822718,2.113047 0.040701,0.21745 0.096659,0.509664 0.124351,0.649364 0.027692,0.1397 0.1462853,0.3683 0.2635401,0.508 0.2470793,0.294376 0.5544085,0.955183 0.6930374,1.490139 0.053095,0.204891 0.3228017,0.951436 0.5993482,1.658993 0.2765462,0.707557 0.5028115,1.315342 0.5028115,1.350632 0,0.03529 0.1478121,0.523179 0.3284712,1.084199 0.1806591,0.561019 0.48788,1.534387 0.68271286,2.163037 0.19483308,0.62865 0.39501841,1.23825 0.44485692,1.354667 0.0498382,0.116416 0.12361756,0.297391 0.16395382,0.402166 0.0403363,0.104775 0.10996797,0.276225 0.15473733,0.381 0.04476961,0.104775 0.14517872,0.40005 0.22313185,0.656167 0.0779531,0.256117 0.21155051,0.67991 0.2968834,0.941763 0.0853329,0.261851 0.18164466,0.64285 0.21402595,0.846667 0.0323813,0.203814 0.12196471,0.48487 0.19907409,0.62457 0.12944028,0.234508 0.27310398,0.70998 0.37093948,1.227667 0.06111,0.323358 0.2919442,0.936974 0.4878811,1.296916 0.09678,0.177789 0.2101008,0.596889 0.2518235,0.931333 0.044104,0.353528 0.1268608,0.645803 0.1976914,0.698191 0.067007,0.04956 0.2050042,0.335309 0.3066595,0.635 0.1776735,0.5238 0.2828528,0.792532 0.5609206,1.433144 0.2134105,0.491652 1.0429036,3.05498 1.0429036,3.222816 0,0.251327 0.3685744,1.114419 0.5348192,1.252392 0.063036,0.05231 0.1633318,0.257587 0.2228797,0.456162 0.059548,0.198576 0.1380861,0.437246 0.1745293,0.530379 0.1583753,0.404738 0.4224385,1.329679 0.4224385,1.479685 0,0.09009 0.09525,0.304154 0.2116666,0.475702 0.1164167,0.171551 0.2116667,0.404257 0.2116667,0.517126 0,0.112871 0.1524,0.576871 0.3386666,1.031115 0.1862667,0.454242 0.3386667,0.862084 0.3386667,0.906312 0,0.04423 0.089608,0.213087 0.1991283,0.37524 0.1974319,0.292309 0.3534564,0.839499 0.3181387,1.115735 -0.010096,0.07897 0.040838,0.258053 0.1131877,0.397962 0.07235,0.139909 0.1315453,0.320493 0.1315453,0.401294 0,0.0808 0.071418,0.22557 0.1587066,0.321706 0.1726039,0.190096 0.6244294,1.384427 0.5619716,1.485485 -0.02114,0.03421 -0.00521,0.178065 0.035408,0.319683 0.049574,0.172855 0.04181,0.290007 -0.023619,0.356423 -0.073701,0.07481 -0.058295,0.127849 0.063185,0.217527 0.088358,0.06523 0.2684203,0.43307 0.4001383,0.817427 0.1317178,0.384355 0.3104364,0.795147 0.3971528,0.912871 0.086716,0.117721 0.2979595,0.67124 0.4694296,1.23004 0.1714701,0.5588 0.3683743,1.18745 0.437565,1.397 0.06919,0.20955 0.1195305,0.537401 0.1118666,0.728559 -0.0083,0.206934 0.042871,0.42866 0.1264645,0.548005 0.07722,0.110247 0.140488,0.296744 0.140597,0.414441 1.08e-4,0.117697 0.111104,0.343757 0.246652,0.502354 0.135549,0.158596 0.26442,0.368146 0.28638,0.465667 0.02196,0.09752 0.139565,0.443843 0.261347,0.769606 0.259446,0.694013 0.273289,0.819293 0.08244,0.746053 -0.119875,-0.046 -0.130599,-0.009 -0.07799,0.27178 0.03355,0.17881 0.1294,0.48023 0.213013,0.66982 0.08361,0.18959 0.211151,0.53522 0.283422,0.76805 0.07227,0.23283 0.224218,0.69003 0.337661,1.016 0.113446,0.32597 0.253757,0.79517 0.311806,1.04267 0.05805,0.2475 0.156419,0.5523 0.218599,0.67733 0.171998,0.34586 0.613886,1.42643 0.854686,2.09 0.11829,0.32596 0.245499,0.66886 0.282692,0.762 0.03719,0.0931 0.149894,0.53128 0.250454,0.97366 0.10056,0.44239 0.310621,1.07449 0.466802,1.40468 0.337979,0.71452 0.553844,1.32787 0.553844,1.57365 0,0.22414 0.309243,1.27163 0.507979,1.72067 0.08244,0.18627 0.235561,0.56727 0.340278,0.84667 0.20061,0.53526 0.506569,1.21144 0.708742,1.56633 0.06632,0.11642 0.177321,0.40217 0.246674,0.635 0.113956,0.38258 0.541615,1.51983 0.732295,1.94734 0.135239,0.30321 0.205962,0.6717 0.182809,0.9525 -0.01249,0.15134 0.01545,0.27516 0.06204,0.27516 0.12195,0 0.267619,0.49505 0.301628,1.02507 0.01611,0.25113 0.07064,0.5709 0.121166,0.7106 0.05053,0.1397 0.152461,0.46355 0.226518,0.71967 0.140181,0.48479 0.177956,0.57278 0.872392,2.032 0.501555,1.05392 0.946817,2.22219 0.946817,2.48424 0,0.10308 0.05599,0.26736 0.124428,0.36506 0.122695,0.17517 0.130662,0.17559 0.5715,0.0301 0.24589,-0.0811 0.732822,-0.2825 1.082072,-0.44745 0.34925,-0.16495 1.016,-0.42099 1.481666,-0.56897 0.465667,-0.14799 1.152546,-0.37973 1.5264,-0.51498 0.373851,-0.13526 1.135851,-0.36015 1.693333,-0.49976 0.55748,-0.13961 1.166,-0.32752 1.352267,-0.41756 0.427651,-0.20674 0.960837,-0.41942 2.032,-0.81054 0.465667,-0.17002 0.922867,-0.34321 1.016,-0.38485 0.09313,-0.0416 0.512233,-0.20586 0.931333,-0.36492 1.533965,-0.58217 2.905758,-1.10904 4.043807,-1.55313 0.640826,-0.25006 1.356225,-0.49089 1.589778,-0.53518 0.233551,-0.0443 0.509339,-0.12782 0.61286,-0.18561 0.204028,-0.1139 0.500904,-0.22906 1.288889,-0.49998 0.2794,-0.0961 0.6223,-0.22436 0.762,-0.2851 0.1397,-0.0607 0.57785,-0.23241 0.973666,-0.38146 0.395817,-0.14905 0.853017,-0.32317 1.016,-0.38693 0.162984,-0.0638 0.696384,-0.23544 1.185334,-0.3815 0.85445,-0.25527 2.657123,-0.93231 3.81,-1.43097 0.302683,-0.13091 0.902266,-0.3559 1.332407,-0.49995 0.862994,-0.28903 1.630926,-0.65051 1.630926,-0.76771 0,-0.14929 -1.484186,-0.20054 -2.836333,-0.0979 -0.745067,0.0565 -1.602317,0.0961 -1.905,0.0879 -0.561105,-0.0152 -3.121716,0.2188 -3.429,0.31331 -0.09313,0.0286 -3.617384,0.0847 -7.831667,0.12455 -4.214283,0.0398 -8.031866,0.0914 -8.483518,0.11446 -0.496197,0.0254 -0.841624,0.009 -0.872831,-0.0416 -0.0284,-0.046 -0.120931,-0.0836 -0.205613,-0.0836 -0.08469,0 -0.201401,-0.0572 -0.259371,-0.127 -0.06096,-0.0734 -0.245647,-0.127 -0.438021,-0.127 -0.30427,0 -0.343955,-0.0271 -0.465624,-0.3175 -0.103891,-0.248 -0.119187,-0.4565 -0.06988,-0.9525 0.03472,-0.34925 0.05069,-0.9779 0.03548,-1.397 -0.05082,-1.40068 -0.01045,-8.36735 0.05519,-9.525 0.03564,-0.62865 0.0601,-2.40743 0.05435,-3.952845 -0.0057,-1.545415 0.0249,-3.031315 0.06812,-3.302 0.04322,-0.270687 0.09642,-1.835224 0.118213,-3.476752 0.0218,-1.641528 0.05812,-3.014506 0.08071,-3.051064 0.06862,-0.111029 0.07926,-4.60734 0.02318,-9.797007 -0.02919,-2.700867 -0.07152,-11.463867 -0.09408,-19.473333 -0.02384,-8.469598 -0.07864,-15.306588 -0.130945,-16.340667 -0.101335,-2.00338 -0.143129,-2.94541 -0.206602,-4.656666 -0.02418,-0.651934 -0.06883,-1.852083 -0.09923,-2.667 l -0.05527,-1.481667 0.429655,-0.456538 0.429657,-0.456536 0.577051,0.05951 c 0.317378,0.03273 1.2438,0.07564 2.058717,0.09535 0.814917,0.01971 2.796117,0.07557 4.402667,0.124134 2.938999,0.08884 6.317906,0.05763 9.609666,-0.08877 0.9779,-0.04349 2.6924,-0.117362 3.81,-0.164153 1.1176,-0.04679 2.1844,-0.122629 2.370667,-0.168524 0.186267,-0.04589 0.833967,-0.08766 1.439333,-0.09281 0.605367,-0.0052 1.579978,-0.03536 2.1658,-0.06713 0.585824,-0.03177 2.224124,-0.03411 3.640667,-0.0052 1.416544,0.02892 2.601814,0.02964 2.633937,0.0016 0.03212,-0.02803 0.07705,-0.356386 0.09985,-0.729681 0.02281,-0.373296 0.08199,-1.078146 0.131535,-1.566334 0.04955,-0.488188 0.148082,-1.592463 0.218964,-2.453947 0.07088,-0.861483 0.203676,-2.023533 0.2951,-2.582333 0.09142,-0.5588 0.205931,-1.26365 0.254466,-1.566333 0.04854,-0.302684 0.163997,-1.007534 0.256582,-1.566334 0.09259,-0.5588 0.206552,-1.258519 0.253259,-1.554931 0.04671,-0.296413 0.104582,-0.570746 0.128614,-0.609629 0.02402,-0.03888 0.07621,-0.684407 0.115959,-1.434498 l 0.07227,-1.363802 0.412167,-0.397237 0.412168,-0.397236 0.592667,0.01082 c 0.325967,0.0059 0.840317,0.06913 1.143,0.140405 0.551222,0.129797 1.036611,0.200208 3.090333,0.448285 0.605367,0.07313 1.500717,0.186183 1.989667,0.251242 0.48895,0.06506 1.2319,0.157314 1.651,0.205012 0.4191,0.0477 0.85725,0.105788 0.973667,0.129086 0.339725,0.06799 3.143205,0.224939 4.585102,0.256693 0.728988,0.01606 1.948188,0.08872 2.709333,0.161481 0.761143,0.07276 1.936348,0.172158 2.611564,0.220882 1.252951,0.09041 1.725854,0.139987 3.513667,0.368328 1.779355,0.227261 3.101557,0.37429 4.233333,0.470748 0.605367,0.05159 1.500717,0.149038 1.989667,0.216545 1.414963,0.195355 3.99325,0.454933 5.418667,0.545543 0.721783,0.04588 1.845733,0.122163 2.497666,0.169514 3.09068,0.22448 3.879427,0.28019 4.783667,0.337877 0.53552,0.03416 1.25942,0.106325 1.60867,0.160357 0.34925,0.05403 1.3208,0.157411 2.159,0.229728 0.8382,0.07232 2.1336,0.18417 2.87866,0.24856 0.74507,0.06439 1.67852,0.155143 2.07434,0.201672 0.39581,0.04653 1.08161,0.108896 1.524,0.138592 0.44238,0.0297 1.29963,0.110124 1.905,0.178729 0.60536,0.06861 1.76239,0.17869 2.57116,0.244632 1.01028,0.08237 1.53268,0.16064 1.66919,0.250084 0.10928,0.0716 0.25461,0.130189 0.32296,0.130189 0.0683,0 0.15125,0.08499 0.18422,0.188862 0.033,0.103875 0.13857,0.295216 0.23467,0.425203 0.13404,0.181292 0.17377,0.359157 0.17057,0.763636 -0.005,0.66089 -0.3516,3.64494 -0.53785,4.633632 -0.11283,0.598932 -0.21898,1.649397 -0.38467,3.806836 -0.0732,0.952876 -0.16612,1.772325 -0.20651,1.820997 -0.0404,0.04867 -0.0776,0.778153 -0.0826,1.621065 -0.005,0.842913 -0.0461,1.661512 -0.0913,1.819109 -0.0452,0.157599 -0.0822,0.453824 -0.0822,0.658278 0,0.204454 -0.0377,0.509505 -0.0837,0.677891 -0.0461,0.168386 -0.11431,0.943846 -0.15167,1.723239 -0.0552,1.15139 -0.0937,1.43713 -0.20531,1.524 -0.11084,0.08627 -0.14832,0.352246 -0.19402,1.376919 -0.0708,1.586079 -0.10203,1.971272 -0.25443,3.132666 -0.0672,0.512233 -0.14154,1.198033 -0.16517,1.524 -0.0678,0.935892 -0.18947,1.878783 -0.25634,1.986973 -0.0337,0.05454 -0.0751,0.443278 -0.092,0.86387 -0.0169,0.420592 -0.0574,0.846564 -0.09,0.946603 -0.0326,0.100039 -0.0673,0.391437 -0.0771,0.647554 -0.0243,0.635804 -0.27826,2.684801 -0.3771,3.042841 -0.0442,0.160147 -0.0596,0.373811 -0.0343,0.474808 0.0254,0.100999 -0.01,0.317248 -0.078,0.480554 -0.0721,0.172488 -0.0947,0.344369 -0.0541,0.41015 0.0385,0.06227 0.0519,0.142441 0.0299,0.178144 -0.0221,0.03571 -0.053,0.323273 -0.0688,0.639042 -0.0695,1.393653 -0.23889,2.963373 -0.34235,3.172963 -0.0665,0.134707 -0.11678,0.551913 -0.12276,1.018529 -0.006,0.434698 -0.0668,1.455973 -0.13601,2.269498 -0.0692,0.813525 -0.14691,1.726788 -0.17261,2.029471 -0.0257,0.302683 -0.10418,1.207373 -0.17439,2.01042 -0.0702,0.803048 -0.10467,1.497299 -0.0766,1.542775 0.0281,0.04548 -0.0118,0.178737 -0.0888,0.29613 -0.098,0.149553 -0.12037,0.283318 -0.0748,0.446892 0.0777,0.278587 0.11866,1.55416 0.0536,1.668049 -0.0251,0.04396 -0.0485,0.463064 -0.0521,0.931334 -0.004,0.46827 -0.0378,0.90021 -0.0761,0.959868 -0.0525,0.08169 -0.15113,2.561537 -0.14884,3.743865 1.3e-4,0.06985 -0.0416,0.5842 -0.0927,1.143 -0.10369,1.133808 -0.11654,1.370804 -0.19515,3.598333 -0.0304,0.861484 -0.10274,1.985434 -0.16075,2.497667 -0.058,0.512233 -0.0946,1.380763 -0.0814,1.930061 0.0153,0.636127 -0.0171,1.158698 -0.0893,1.439334 -0.0624,0.242334 -0.0868,0.516805 -0.0542,0.609938 0.078,0.223126 -0.0611,2.244122 -0.16745,2.433019 -0.0455,0.08086 -0.0828,0.358976 -0.0828,0.618037 0,0.259062 -0.0559,0.57921 -0.12433,0.711441 -0.0684,0.132233 -0.12462,0.349417 -0.12498,0.482629 -2.7e-4,0.133215 -0.003,1.075076 -0.005,2.093029 -0.004,1.430411 -0.0321,1.903902 -0.1255,2.084498 -0.26749,0.517263 -0.50265,2.077877 -0.59989,3.981017 -0.0274,0.53551 -0.067,1.10701 -0.0881,1.27 -0.0211,0.16298 -0.0504,0.54398 -0.0651,0.84666 -0.0363,0.7482 -0.11939,1.0737 -0.28974,1.13518 -0.53948,0.1947 -0.72594,0.22559 -1.34577,0.22295 -0.55427,-0.002 -0.70992,0.0247 -0.7712,0.13423 -0.0679,0.12133 -0.15895,0.12649 -0.78724,0.0446 -0.39075,-0.0509 -0.95811,-0.11496 -1.26079,-0.14231 -0.30268,-0.0274 -1.01242,-0.12509 -1.5772,-0.21717 -1.09195,-0.17803 -1.65603,-0.25111 -3.54513,-0.45931 -2.232568,-0.24605 -4.487633,-0.54726 -5.715003,-0.76336 -1.683129,-0.29634 -2.058954,-0.3557 -3.471334,-0.54828 -0.675216,-0.0921 -1.303866,-0.18787 -1.397,-0.21289 -0.09313,-0.025 -0.645583,-0.11867 -1.227666,-0.20811 -1.062059,-0.16319 -1.851449,-0.29775 -3.249533,-0.55394 -0.911937,-0.1671 -1.123874,-0.13149 -1.13633,0.19092 -0.005,0.12895 -0.05015,0.42496 -0.100365,0.6578 -0.12846,0.59561 -0.140057,2.67498 -0.0222,3.97933 0.118914,1.31595 0.138422,5.36405 0.02726,5.65643 -0.04395,0.11558 -0.174369,0.23051 -0.296334,0.26112 -0.174646,0.0438 -0.219831,0.10892 -0.227872,0.32823 -0.0055,0.15045 -0.0049,0.31672 0.0013,0.36948 0.0063,0.0528 -0.130858,0.23826 -0.304811,0.41221 l -0.316277,0.31628 -4.151326,-0.003 c -2.28323,-0.002 -4.513276,0.0284 -4.955659,0.0666 -0.84029,0.0726 -7.450463,-0.0387 -9.355666,-0.15752 -1.353786,-0.0844 -13.854838,0.0644 -13.964084,0.16622 -0.04693,0.0437 0.0769,0.22043 0.306464,0.43727 l 0.385212,0.36387 -0.0948,0.51078 c -0.143447,0.77293 -0.248402,0.87831 -1.248299,1.25336 -0.483174,0.18123 -0.918636,0.36066 -0.967695,0.39873 -0.04906,0.0381 -0.514739,0.22165 -1.034844,0.40796 -0.99409,0.35611 -1.61503,0.60009 -2.177957,0.85577 -0.761892,0.34604 -2.424335,0.92715 -4.826,1.68692 -0.2794,0.0884 -0.71755,0.24235 -0.973667,0.34215 -1.181814,0.46049 -1.921793,0.73403 -3.217333,1.18932 -2.165424,0.761 -3.466756,1.25178 -4.021667,1.51671 -0.2794,0.1334 -0.8509,0.35734 -1.27,0.49765 -0.4191,0.14031 -1.00965,0.36814 -1.312333,0.50629 -0.302683,0.13815 -0.895572,0.36658 -1.317535,0.50762 -0.42196,0.14104 -0.91726,0.33406 -1.100667,0.42894 -0.183404,0.0949 -0.790665,0.30856 -1.349465,0.47487 -0.5588,0.16631 -1.22555,0.37457 -1.481666,0.46279 -0.256117,0.0882 -1.017945,0.32134 -1.692953,0.51802 -0.675007,0.19668 -1.284607,0.38698 -1.354666,0.42289 -0.299281,0.15339 -0.796568,0.35081 -1.688272,0.67024 -0.928695,0.33268 -1.154771,0.36463 -1.973943,0.27894 z m 14.964833,-15.90016 c 5.339966,-0.0397 6.215186,-0.0708 8.255,-0.2933 1.182497,-0.12898 2.601412,-0.17918 7.027333,-0.24863 3.050116,-0.0479 6.155266,-0.10702 6.900333,-0.13146 2.234372,-0.0733 7.668853,-0.0543 11.006667,0.0384 1.722966,0.0479 4.180416,0.0965 5.461,0.10809 3.154018,0.0285 10.199782,-0.0682 10.318665,-0.14167 0.115234,-0.0712 0.06761,-2.65363 -0.08346,-4.52549 -0.07534,-0.93355 -0.07402,-1.92777 0.0057,-4.26987 0.05713,-1.67914 0.09887,-3.55089 0.09275,-4.15944 -0.0061,-0.608553 0.0082,-2.954312 0.03174,-5.212795 0.05542,-5.30929 0.06953,-15.051884 0.02191,-15.134034 -0.02029,-0.035 -0.06254,-1.816232 -0.0939,-3.958299 -0.03136,-2.142067 -0.07281,-4.008967 -0.09212,-4.148667 -0.04059,-0.293711 -0.110675,-3.022986 -0.204383,-7.958666 -0.0406,-2.138794 -0.03276,-4.218855 0.02043,-5.418667 0.103415,-2.332397 0.09002,-5.881311 -0.02511,-6.646333 -0.09525,-0.633013 -0.192757,-5.42867 -0.205912,-10.126858 -0.0073,-2.603614 -0.03151,-3.253616 -0.125486,-3.366847 -0.08364,-0.100777 -0.104154,-0.293574 -0.0728,-0.684149 0.03479,-0.433398 0.01791,-0.553712 -0.08318,-0.5925 -0.06976,-0.02677 -1.90351,-0.0032 -4.075001,0.05237 -5.375299,0.13757 -15.353858,0.126055 -18.764834,-0.02164 -3.57989,-0.155019 -5.884331,-0.146032 -8.019693,0.03129 -0.964898,0.08012 -2.526998,0.148984 -3.471333,0.153027 -0.944335,0.004 -2.212274,0.04112 -2.817641,0.0824 -1.850728,0.126209 -11.918069,0.2536 -12.954,0.16392 -1.966772,-0.170262 -6.077659,-0.38132 -6.710574,-0.34453 -0.07741,0.0045 -0.0943,0.127828 -0.0617,0.450694 0.06461,0.640112 0.241861,5.369446 0.260995,6.963833 0.0089,0.745067 0.05915,1.70679 0.111586,2.137161 0.05563,0.456661 0.114533,2.977425 0.141451,6.053667 0.02711,3.09816 0.09034,5.794721 0.153385,6.541172 0.05935,0.702752 0.112225,2.736696 0.118374,4.553765 0.0061,1.806069 0.02896,3.312636 0.05077,3.347923 0.153911,0.249034 0.220613,9.436886 0.123508,17.013198 -0.03809,2.972345 -0.0449,3.07477 -0.21213,3.191902 -0.182176,0.127603 -0.207259,0.361735 -0.33588,3.135211 -0.02376,0.512234 -0.07796,1.178984 -0.120449,1.481667 -0.073,0.51997 -0.061,1.53869 0.05881,4.995333 0.02825,0.814917 0.04609,1.634067 0.03966,1.820334 -0.0064,0.186266 -0.02866,1.557868 -0.04939,3.047998 -0.02072,1.49013 -0.08105,3.01413 -0.134043,3.38667 -0.06267,0.44052 -0.07513,1.13106 -0.03563,1.97512 0.0334,0.71378 0.06568,2.48543 0.07174,3.937 0.0061,1.45156 0.04527,2.6927 0.08715,2.75808 0.06351,0.0991 0.379579,0.10886 1.90459,0.0586 1.005647,-0.0332 3.923948,-0.0759 6.485115,-0.0949 z m 43.010666,-9.10557 c -0.64792,-0.13891 -3.148193,-0.22132 -5.62021,-0.18524 -1.403948,0.0205 -3.054919,-0.005 -3.79003,-0.0582 -0.716367,-0.052 -1.895432,-0.0955 -2.620142,-0.0966 -1.1601,-0.002 -1.357373,-0.0228 -1.649804,-0.17516 -0.182682,-0.0952 -0.332147,-0.21391 -0.332147,-0.26375 0,-0.0498 -0.06652,-0.16412 -0.147823,-0.25396 -0.12595,-0.13917 -0.14787,-0.34058 -0.148167,-1.36133 -1.88e-4,-0.6589 0.0127,-1.61709 0.02861,-2.12932 0.04019,-1.292476 -0.05429,-7.143001 -0.116988,-7.244445 -0.1675,-0.271023 0.02833,-3.430857 0.22856,-3.687995 0.04073,-0.05231 0.05099,-0.155218 0.02281,-0.22869 -0.06745,-0.175771 0.360265,-0.734541 0.562261,-0.734541 0.08533,0 0.374565,-0.05715 0.642739,-0.127 0.276064,-0.07191 0.85635,-0.127149 1.33763,-0.127344 0.467524,-1.88e-4 1.459646,-0.05043 2.204712,-0.111641 0.745067,-0.06121 2.040467,-0.105326 2.878667,-0.09803 1.576501,0.01373 2.26011,-0.01992 5.214654,-0.256734 2.163755,-0.173421 2.300372,-0.148489 2.811262,0.51303 0.195847,0.25359 0.414292,0.461216 0.485433,0.461394 0.356322,7.93e-4 0.377849,0.166785 0.39564,3.049042 0.0093,1.513811 0.05936,3.361661 0.111148,4.106333 0.157859,2.269808 0.270468,4.832261 0.280887,6.391621 0.01154,1.72592 -0.06606,2.09464 -0.457237,2.17287 -0.134379,0.0269 -0.287943,0.10143 -0.341257,0.16566 -0.05331,0.0642 -0.19704,0.11725 -0.319397,0.1178 -0.122356,5.3e-4 -0.432017,0.0572 -0.688133,0.126 -0.516435,0.13862 -0.499219,0.13797 -0.973667,0.0363 z m 0.100761,-3.31709 c -0.01857,-0.80328 -0.07886,-2.260605 -0.133951,-3.238505 -0.05509,-0.9779 -0.108926,-2.1209 -0.119639,-2.54 -0.01072,-0.4191 -0.04964,-0.809625 -0.08649,-0.867833 -0.08077,-0.127564 -0.580793,-0.140856 -0.702961,-0.01868 -0.07229,0.07229 -0.9325,0.102182 -2.063388,0.07171 -0.116416,-0.0031 -0.36771,0.02122 -0.558429,0.05411 -0.319204,0.05507 -0.367972,0.03721 -0.613678,-0.22474 -0.300262,-0.320111 -0.433802,-0.655333 -0.474099,-1.190101 -0.01511,-0.200454 -0.05613,-0.691248 -0.09117,-1.090657 -0.05363,-0.611357 -0.04115,-0.760627 0.07896,-0.943939 0.171331,-0.261482 0.566706,-0.440832 0.831273,-0.377081 0.194741,0.04692 0.461314,0.0019 1.377477,-0.232532 0.2794,-0.0715 0.876739,-0.134228 1.327422,-0.139396 0.930481,-0.01066 0.916244,5.3e-4 0.916244,-0.720447 0,-0.3132 -0.03395,-0.458742 -0.106992,-0.458742 -0.05885,0 -0.716071,0.07312 -1.4605,0.162483 -0.837163,0.100497 -2.225588,0.181449 -3.639508,0.212199 -1.2573,0.02734 -3.209925,0.09441 -4.339166,0.149034 l -2.053167,0.09932 -0.01902,0.513985 c -0.03039,0.821481 0.02138,1.523111 0.119111,1.614648 0.06079,0.05694 0.102888,0.05068 0.128518,-0.01908 0.02907,-0.07913 0.453578,-0.09414 1.788584,-0.06327 0.962757,0.02228 1.929119,0.06269 2.147466,0.08982 0.476949,0.05927 1.132126,0.452935 1.209106,0.726498 0.03055,0.108551 0.09969,0.286835 0.153647,0.396187 0.08837,0.1791 0.06389,0.230736 -0.246827,0.520571 -0.515597,0.480941 -0.938509,0.5423 -3.226062,0.468048 l -1.882476,-0.0611 0.02908,4.10351 c 0.01601,2.25693 0.05599,4.14704 0.08887,4.20025 0.03288,0.0532 0.162063,0.0947 0.28706,0.0923 0.124997,-0.002 1.122616,0.009 2.216933,0.0256 1.094317,0.0165 2.26931,0.009 2.611094,-0.0176 l 0.621429,-0.0477 0.01646,-0.93133 c 0.01447,-0.81895 0.04424,-0.98949 0.246571,-1.41328 0.126555,-0.265057 0.276476,-0.510593 0.33316,-0.545624 0.05668,-0.03503 0.399886,-0.07459 0.762675,-0.08791 0.362789,-0.01331 0.909436,-0.08215 1.214773,-0.152963 1.158748,-0.268732 1.555563,0.0079 1.617615,1.127497 0.01979,0.35692 0.07202,0.7594 0.116092,0.89441 0.04407,0.13501 0.08012,0.40395 0.08012,0.59765 0,0.585 0.156549,0.68785 1.083276,0.71169 l 0.448276,0.0115 z m -9.148511,-0.26509 c -0.249539,-0.28861 -0.287398,-0.47575 -0.09625,-0.47575 0.114191,0 0.1696,-0.1967 0.135035,-0.47937 -0.0066,-0.05409 0.182917,-0.163111 0.421183,-0.24225 l 0.43321,-0.143889 0.351954,0.254053 c 0.427379,0.308506 0.957522,1.021676 0.798462,1.074126 -0.781817,0.25781 -1.003901,0.30432 -1.380355,0.28909 -0.373888,-0.0151 -0.473525,-0.0566 -0.663239,-0.27601 z m -0.772504,-3.027255 c -0.619538,-0.144724 -1.059413,-0.563756 -1.059413,-1.009211 0,-0.178422 0.395071,-0.672616 0.537705,-0.672616 0.04751,0 0.165037,-0.06962 0.261173,-0.154717 0.117102,-0.103653 0.487265,-0.202833 1.121574,-0.300506 0.938337,-0.144489 0.952182,-0.14415 1.551757,0.03796 0.332735,0.101065 0.625131,0.236294 0.649772,0.300506 0.02463,0.06421 0.114332,0.116752 0.199313,0.116752 0.166278,0 0.450705,0.351595 0.524047,0.647801 0.04066,0.164219 -0.03095,0.207182 -0.727956,0.436748 -0.830477,0.273526 -1.371594,0.412472 -2.043051,0.524605 -0.232834,0.03888 -0.480484,0.08888 -0.550334,0.111117 -0.06985,0.02222 -0.278913,0.0049 -0.464587,-0.03844 z m 5.798587,-0.120309 c -0.325929,-0.22629 -0.423333,-0.38409 -0.423333,-0.685826 0,-0.386776 0.223734,-0.814861 0.4928,-0.942904 0.124777,-0.05938 0.580382,-0.131516 1.012454,-0.160305 1.036897,-0.06908 1.636779,0.112403 1.935843,0.585668 0.109762,0.173699 0.199569,0.392774 0.199569,0.486833 0,0.224417 -0.274767,0.492607 -0.569346,0.555723 -0.129243,0.02769 -0.329313,0.08891 -0.4446,0.136046 -0.115287,0.04714 -0.610587,0.105056 -1.100667,0.128712 -0.754735,0.03643 -0.923435,0.02053 -1.10272,-0.103947 z m 35.810945,6.752324 c 0.0575,-0.1255 0.14027,-0.62822 0.18395,-1.11717 0.0437,-0.48895 0.11572,-1.094 0.16009,-1.34456 0.0444,-0.25055 0.10464,-0.8792 0.13392,-1.397 0.0293,-0.51779 0.10744,-1.170045 0.1737,-1.449445 0.0663,-0.2794 0.15611,-1.3462 0.19967,-2.370667 0.0436,-1.024466 0.11772,-2.129366 0.1648,-2.455333 0.11186,-0.774422 0.23438,-2.330201 0.30004,-3.81 0.0289,-0.651933 0.10713,-1.775883 0.17378,-2.497666 0.0666,-0.721784 0.12132,-1.840154 0.12148,-2.485266 2.6e-4,-1.120815 0.0731,-2.452322 0.25528,-4.669068 0.0459,-0.5588 0.10457,-1.778 0.13031,-2.709333 0.0257,-0.931333 0.0817,-1.921933 0.12443,-2.201333 0.0427,-0.2794 0.0971,-0.90805 0.12093,-1.397 0.11207,-2.301084 0.23886,-4.378653 0.39268,-6.434667 0.0923,-1.234017 0.20483,-2.758017 0.25003,-3.386667 0.0452,-0.628649 0.12322,-1.504949 0.17338,-1.947333 0.0502,-0.442383 0.10297,-0.994833 0.11735,-1.227666 0.048,-0.776788 0.29781,-3.208568 0.34488,-3.356872 0.0255,-0.08047 0.10068,-0.691592 0.16698,-1.358051 0.0663,-0.666459 0.16007,-1.554644 0.20838,-1.973744 0.24908,-2.160945 0.53956,-4.828106 0.59935,-5.503333 0.0371,-0.4191 0.12621,-1.1811 0.19798,-1.693334 0.0718,-0.512233 0.16889,-1.208902 0.2158,-1.548153 0.0892,-0.644771 0.34027,-3.138263 0.55603,-5.521513 0.0696,-0.76835 0.1495,-1.60655 0.17765,-1.862667 0.0835,-0.759886 0.17538,-2.202209 0.27502,-4.318 0.1043,-2.214488 0.20184,-3.237814 0.43981,-4.614333 0.18509,-1.070671 0.3996,-2.880879 0.43606,-3.679875 l 0.025,-0.547206 -1.31233,-0.139303 c -0.72178,-0.07662 -1.82668,-0.18373 -2.45533,-0.238027 -2.21455,-0.191278 -4.03384,-0.361458 -5.16467,-0.483121 -0.62865,-0.06763 -1.61925,-0.156672 -2.20133,-0.197863 -0.58209,-0.04119 -2.37279,-0.19104 -3.97934,-0.332996 -1.606548,-0.141956 -3.529767,-0.30109 -4.273815,-0.353632 -0.744051,-0.05254 -1.373804,-0.108499 -1.399453,-0.124351 -0.02564,-0.01585 -0.807532,-0.07143 -1.737516,-0.123517 -0.929984,-0.05208 -1.90043,-0.130213 -2.156547,-0.173624 -0.256117,-0.04341 -1.132417,-0.159697 -1.947333,-0.258414 -0.814917,-0.09872 -1.881717,-0.230713 -2.370667,-0.293328 -0.48895,-0.06261 -1.44145,-0.156565 -2.116667,-0.20878 -1.145537,-0.08858 -1.780394,-0.170855 -4.614333,-0.59797 -0.605367,-0.09124 -1.767417,-0.2041 -2.582333,-0.250804 -0.814917,-0.0467 -2.034117,-0.157823 -2.709334,-0.24693 -0.675216,-0.08911 -1.703916,-0.186596 -2.286,-0.216644 -1.609907,-0.0831 -3.759282,-0.273763 -4.656666,-0.413066 -1.483204,-0.230241 -2.745423,-0.38521 -3.556,-0.436587 -1.122162,-0.07113 -1.868178,-0.180311 -2.73386,-0.40012 -0.601605,-0.152756 -0.757365,-0.167649 -0.81294,-0.07773 -0.03781,0.06118 -0.0749,0.450337 -0.08242,0.864797 -0.0075,0.414459 -0.05127,0.852461 -0.09723,0.973337 -0.04596,0.120876 -0.08491,0.417319 -0.08657,0.658763 -0.0016,0.241443 -0.06123,0.667588 -0.132382,0.946988 -0.243768,0.957241 -0.52302,2.286151 -0.622699,2.963333 -0.05484,0.372534 -0.169609,1.039284 -0.255051,1.481667 -0.08544,0.442383 -0.180033,1.128183 -0.210201,1.524 -0.03017,0.395817 -0.09276,0.989621 -0.139099,1.319564 -0.131876,0.939022 -0.238017,3.541305 -0.146794,3.59904 0.152117,0.09628 3.434223,0.203764 6.377575,0.208857 16.937892,0.02931 17.50726,0.03446 17.653,0.159636 0.08021,0.06889 0.363561,0.108022 0.769056,0.106212 0.56814,-0.0026 0.66561,0.02069 0.846667,0.201747 0.198374,0.198374 0.204909,0.245901 0.214392,1.559277 0.0054,0.745067 0.03526,3.183467 0.0664,5.418667 0.03114,2.2352 0.04794,4.19735 0.03734,4.360333 -0.02323,0.357394 -0.01534,0.630722 0.09674,3.344333 0.168992,4.091787 0.21258,6.102909 0.147714,6.815667 -0.140322,1.541923 -0.0978,11.212528 0.06924,15.748 0.245063,6.653736 0.297675,19.379329 0.0827,20.003299 -0.09238,0.268139 -0.0912,0.386979 0.0071,0.713663 0.176273,0.585711 0.166296,3.098189 -0.01288,3.246903 -0.07427,0.06164 -0.107233,0.166799 -0.07622,0.2432 0.09944,0.245017 0.11297,1.059955 0.01947,1.172628 -0.06659,0.08024 -0.06282,0.165116 0.01373,0.308115 0.07938,0.148323 0.08814,0.447434 0.03524,1.203616 -0.07637,1.09177 -0.08761,2.37454 -0.02141,2.44076 0.02275,0.0227 0.420479,0.0631 0.883865,0.0896 0.463383,0.0266 1.033015,0.0837 1.265848,0.12693 1.072071,0.19916 2.60585,0.42324 2.896569,0.42318 0.176421,-3e-5 0.625565,0.0547 0.998098,0.12158 0.372533,0.0669 1.058333,0.16343 1.524,0.21451 0.465667,0.0511 1.037167,0.12921 1.27,0.17362 1.595467,0.30432 4.319627,0.65774 6.180666,0.80187 0.77467,0.06 2.51884,0.28843 4.48733,0.58773 0.74507,0.11328 1.86902,0.27201 2.49767,0.35274 0.62865,0.0807 1.19785,0.17459 1.26489,0.20859 0.17731,0.0899 0.30685,0.016 0.42539,-0.24273 z M -1.6446505,86.353665 c -0.1168125,-0.116813 -0.1359556,-0.321733 -0.030056,-0.321733 0.081959,0 0.3517889,0.281114 0.3517889,0.366501 0,0.09377 -0.2128046,0.06416 -0.3217333,-0.04477 z"
       id="path1" />
  </g>
</svg>
