<?xml version="1.0" encoding="UTF-8" standalone="no"?>
<!-- Created with Inkscape (http://www.inkscape.org/) -->

<svg
   width="40.080643mm"
   height="36.916801mm"
   viewBox="0 0 40.080643 36.916801"
   version="1.1"
   id="svg5"
   xml:space="preserve"
   inkscape:version="1.2.2 (b0a8486541, 2022-12-01)"
   sodipodi:docname="logo_qr_cartes.svg"
   xmlns:inkscape="http://www.inkscape.org/namespaces/inkscape"
   xmlns:sodipodi="http://sodipodi.sourceforge.net/DTD/sodipodi-0.dtd"
   xmlns="http://www.w3.org/2000/svg"
   xmlns:svg="http://www.w3.org/2000/svg"><sodipodi:namedview
     id="namedview7"
     pagecolor="#ffffff"
     bordercolor="#999999"
     borderopacity="1"
     inkscape:showpageshadow="0"
     inkscape:pageopacity="0"
     inkscape:pagecheckerboard="0"
     inkscape:deskcolor="#d1d1d1"
     inkscape:document-units="mm"
     showgrid="false"
     inkscape:zoom="2.9451837"
     inkscape:cx="463.97785"
     inkscape:cy="424.08221"
     inkscape:window-width="1366"
     inkscape:window-height="714"
     inkscape:window-x="0"
     inkscape:window-y="22"
     inkscape:window-maximized="1"
     inkscape:current-layer="layer1" /><defs
     id="defs2" /><g
     inkscape:label="Calque 1"
     inkscape:groupmode="layer"
     id="layer1"
     transform="translate(-112.87837,-94.438909)"><path
       style="fill:#000000;stroke-width:0.0423333"
       d="m 122.33795,131.33184 c -0.014,-0.0227 -0.12186,-0.0545 -0.23961,-0.0707 -0.25585,-0.0352 -0.37096,-0.13225 -0.50167,-0.42299 -0.0523,-0.11642 -0.15898,-0.34502 -0.23698,-0.508 -0.078,-0.16298 -0.15295,-0.34823 -0.16653,-0.41165 -0.0136,-0.0634 -0.0707,-0.18312 -0.12694,-0.26599 -0.0562,-0.0829 -0.11466,-0.20719 -0.12983,-0.27626 -0.0152,-0.0691 -0.0444,-0.1256 -0.0649,-0.1256 -0.0379,0 -0.14664,-0.31876 -0.13962,-0.4094 0.002,-0.0273 -0.0191,-0.0408 -0.0472,-0.03 -0.0303,0.0116 -0.071,-0.0472 -0.1002,-0.14463 -0.0271,-0.0903 -0.0875,-0.19882 -0.13423,-0.24115 -0.0468,-0.0423 -0.085,-0.10295 -0.085,-0.13473 0,-0.0318 -0.0476,-0.13322 -0.10584,-0.22543 -0.0582,-0.0922 -0.10583,-0.20454 -0.10583,-0.24963 0,-0.0451 -0.0238,-0.0899 -0.0529,-0.0997 -0.0373,-0.0125 -0.0529,-0.13504 -0.0529,-0.41627 0,-0.37277 -0.006,-0.40132 -0.0953,-0.4404 -0.0524,-0.023 -0.0952,-0.0658 -0.0952,-0.0953 0,-0.0294 -0.0238,-0.0555 -0.0529,-0.0581 -0.0291,-0.003 -0.11007,-0.01 -0.17992,-0.0159 -0.0699,-0.006 -0.21639,-0.0612 -0.32564,-0.12236 -0.10926,-0.0611 -0.24643,-0.11114 -0.30482,-0.11114 -0.0584,0 -0.12316,-0.0304 -0.14393,-0.0675 -0.0208,-0.0371 -0.10203,-0.0806 -0.18058,-0.0967 -0.11765,-0.0241 -0.14771,-0.0532 -0.1706,-0.16509 -0.0153,-0.0747 -0.0468,-0.15981 -0.07,-0.18906 -0.10929,-0.13767 -0.13762,-0.39175 -0.1381,-1.23866 -3e-4,-0.48887 0.0149,-1.12698 0.0337,-1.41802 0.045,-0.69697 -0.0242,-0.98459 -0.21262,-0.88375 -0.0711,0.038 -0.10321,0.0268 -0.18937,-0.0661 -0.0571,-0.0616 -0.1601,-0.12318 -0.22895,-0.13695 -0.0725,-0.0145 -0.18419,-0.094 -0.26533,-0.18878 -0.0771,-0.0901 -0.1588,-0.16374 -0.18158,-0.16374 -0.0228,0 -0.0923,-0.10954 -0.1544,-0.24342 -0.0621,-0.13388 -0.15557,-0.31009 -0.20764,-0.39158 -0.0521,-0.0815 -0.0958,-0.17674 -0.0973,-0.21167 -0.002,-0.0559 -0.0841,-0.25597 -0.19396,-0.47429 -0.0226,-0.0449 -0.0186,-0.0831 0.0107,-0.10118 0.0607,-0.0375 0.0184,-0.51885 -0.0622,-0.70614 -0.0323,-0.0751 -0.0906,-0.28895 -0.12956,-0.47522 -0.039,-0.18627 -0.0771,-0.36724 -0.0848,-0.40217 -0.0657,-0.2981 -0.19863,-0.72799 -0.24315,-0.78606 -0.0191,-0.0249 -0.0709,-0.19633 -0.1152,-0.381 -0.0443,-0.18468 -0.1115,-0.40954 -0.14936,-0.49969 -0.0379,-0.0902 -0.0688,-0.20689 -0.0688,-0.2594 0,-0.0525 -0.0298,-0.12021 -0.0662,-0.15044 -0.0405,-0.0337 -0.0571,-0.0912 -0.0427,-0.14851 0.0141,-0.056 -0.002,-0.11453 -0.0396,-0.1459 -0.0347,-0.0288 -0.0631,-0.0841 -0.0631,-0.12295 0,-0.10701 -0.11828,-0.5586 -0.18392,-0.70221 -0.0944,-0.20659 -0.28175,-0.79992 -0.28175,-0.89239 0,-0.047 -0.0163,-0.10361 -0.0362,-0.12573 -0.0407,-0.0452 -0.0936,-0.2138 -0.38455,-1.22555 -0.16438,-0.57168 -0.29386,-0.97689 -0.4261,-1.3335 -0.0734,-0.19791 -0.14313,-0.44556 -0.15498,-0.55033 -0.0119,-0.10478 -0.0434,-0.2169 -0.0701,-0.24916 -0.0267,-0.0323 -0.0499,-0.0799 -0.0515,-0.10583 -0.005,-0.0854 -0.0688,-0.29884 -0.12936,-0.43458 -0.0327,-0.0734 -0.0595,-0.16319 -0.0595,-0.1996 0,-0.0364 -0.0272,-0.14784 -0.0604,-0.24761 -0.0332,-0.0998 -0.0703,-0.2476 -0.0825,-0.32853 -0.0122,-0.0809 -0.055,-0.17121 -0.0953,-0.20064 -0.0403,-0.0294 -0.061,-0.0657 -0.0462,-0.0805 0.0148,-0.0148 -0.002,-0.0823 -0.0366,-0.14985 -0.0349,-0.0676 -0.0532,-0.13967 -0.0405,-0.16019 0.0127,-0.0205 -0.0342,-0.20555 -0.10411,-0.41117 -0.0699,-0.20563 -0.12716,-0.41783 -0.12716,-0.47155 0,-0.0537 -0.0279,-0.15158 -0.0619,-0.21746 -0.0341,-0.0659 -0.0707,-0.18399 -0.0813,-0.26248 -0.0106,-0.0785 -0.0382,-0.20938 -0.0612,-0.29087 -0.0713,-0.2526 -0.10196,-0.67734 -0.0489,-0.67734 0.0472,0 0.0437,-0.0843 -0.0237,-0.5816 -0.0273,-0.20158 -0.0192,-0.23627 0.0894,-0.381 0.0657,-0.0876 0.14433,-0.17447 0.17472,-0.19308 0.0304,-0.0186 0.0553,-0.0603 0.0553,-0.0927 0,-0.0372 0.0699,-0.0693 0.1905,-0.0874 0.22555,-0.0338 0.24424,-0.10369 0.0635,-0.23731 -0.0699,-0.0517 -0.127,-0.12461 -0.127,-0.16214 0,-0.0375 -0.0229,-0.0912 -0.051,-0.11922 -0.0293,-0.0293 -0.0545,-0.1909 -0.0593,-0.38012 l -0.008,-0.32913 0.14085,-0.0923 c 0.0775,-0.0508 0.14703,-0.13401 0.15459,-0.18495 0.0152,-0.10214 0.002,-0.0936 0.47942,-0.30731 0.39322,-0.17596 0.80117,-0.3228 0.9525,-0.34285 0.0582,-0.008 0.30586,-0.0749 0.55033,-0.14921 0.24448,-0.0744 0.51521,-0.14489 0.60163,-0.15675 0.0864,-0.0118 0.17924,-0.0482 0.20627,-0.0808 0.027,-0.0326 0.10872,-0.06 0.18154,-0.0611 0.16052,-0.002 0.42938,-0.0941 0.52678,-0.1799 0.0392,-0.0345 0.13796,-0.0762 0.21945,-0.0925 0.0815,-0.0164 0.28152,-0.0774 0.4445,-0.13574 0.55902,-0.19999 0.73489,-0.23393 0.83798,-0.16173 0.0501,0.0351 0.17061,0.0638 0.26789,0.0638 0.17324,0 0.17667,-0.003 0.16734,-0.13747 -0.0119,-0.17195 0.0765,-0.60549 0.13868,-0.68047 0.0303,-0.0365 0.0321,-0.0706 0.005,-0.0974 -0.0268,-0.0268 0.018,-0.10297 0.12801,-0.21749 0.0931,-0.0969 0.1693,-0.18925 0.1693,-0.20522 0,-0.016 0.0667,-0.11039 0.14817,-0.20984 0.0839,-0.10243 0.14816,-0.22795 0.14816,-0.28954 0,-0.0825 0.0332,-0.12277 0.13759,-0.16695 0.0757,-0.032 0.17307,-0.0981 0.21645,-0.14677 0.0456,-0.0512 0.1796,-0.1102 0.3175,-0.13984 0.13124,-0.0282 0.25768,-0.0647 0.28096,-0.0811 0.0233,-0.0164 0.11208,-0.0424 0.19733,-0.0577 0.17826,-0.0321 1.26415,-0.0359 1.45367,-0.005 0.24234,0.0394 1.01456,0.0995 1.04403,0.0812 0.0163,-0.0101 0.0407,-3.3e-4 0.0543,0.0216 0.0154,0.0249 0.0761,0.0246 0.16167,-9.2e-4 0.0754,-0.0225 0.32751,-0.0377 0.56035,-0.0339 0.23283,0.004 0.4519,-0.003 0.48683,-0.0161 0.0986,-0.0358 2.11505,-0.10245 2.43417,-0.0805 0.0698,0.005 0.36512,-0.0119 0.65616,-0.0372 0.29104,-0.0253 0.71967,-0.0544 0.9525,-0.0647 0.23284,-0.0103 0.64241,-0.03606 0.91017,-0.05716 0.26776,-0.0211 0.54815,-0.03969 0.62309,-0.04131 0.10201,-0.0022 0.13023,-0.01864 0.1123,-0.06538 -0.0132,-0.03433 0.0152,-0.12581 0.0631,-0.203279 0.0787,-0.127299 0.0812,-0.152066 0.0266,-0.257365 -0.11058,-0.213152 -0.10965,-0.427945 0.003,-0.649642 0.0567,-0.111717 0.10374,-0.231697 0.10458,-0.266622 8.4e-4,-0.03493 0.0295,-0.100479 0.0637,-0.145675 0.0342,-0.0452 0.0628,-0.13092 0.0636,-0.1905 7.9e-4,-0.05958 0.0382,-0.184525 0.0832,-0.277658 0.045,-0.09313 0.0824,-0.220597 0.0832,-0.283252 7.9e-4,-0.06265 0.0205,-0.125692 0.0438,-0.140082 0.0233,-0.01439 0.0423,-0.06885 0.0423,-0.121032 0,-0.05218 0.0171,-0.112965 0.0379,-0.135084 0.0365,-0.03871 0.0714,-0.169796 0.19142,-0.71755 0.0633,-0.28883 0.15272,-0.64675 0.18514,-0.740834 0.0254,-0.07358 0.0358,-0.123046 0.0448,-0.212066 0.011,-0.109484 0.16207,-0.178216 0.25882,-0.117793 0.0693,0.04328 0.10271,0.03731 0.20191,-0.03603 0.10177,-0.07524 0.12689,-0.0793 0.17463,-0.02819 0.0854,0.09142 0.1642,-0.0027 0.15749,-0.188129 -0.003,-0.09346 0.025,-0.199798 0.069,-0.258851 0.0411,-0.05512 0.064,-0.117569 0.0509,-0.138766 -0.0268,-0.04329 0.1462,-0.201923 0.22253,-0.2041 0.0272,-7.74e-4 0.0573,-0.0252 0.067,-0.05429 0.0211,-0.06331 0.90677,-0.05984 1.3441,0.0053 0.35862,0.05339 0.75198,0.155931 0.82242,0.214389 0.0307,0.02549 0.0867,0.03452 0.12436,0.02006 0.0423,-0.01623 0.0787,1.78e-4 0.095,0.04287 0.0169,0.04398 0.0548,0.0602 0.10408,0.04454 0.0911,-0.02892 0.28131,0.06108 0.39534,0.187086 0.0443,0.04895 0.11274,0.089 0.15209,0.089 0.0394,0 0.10486,0.03682 0.14559,0.08181 0.0407,0.045 0.0988,0.07229 0.12918,0.06065 0.0303,-0.01164 0.11492,0.03727 0.18798,0.108688 0.0731,0.07142 0.16892,0.129851 0.21302,0.129851 0.0441,0 0.11334,0.03316 0.15387,0.07369 0.0774,0.07743 0.20304,0.103561 0.53561,0.111428 0.13342,0.0032 0.20109,0.02312 0.20109,0.05932 0,0.03001 0.0333,0.06521 0.0741,0.07824 0.0408,0.01302 0.11218,0.04102 0.15875,0.06223 0.14572,0.06635 0.49993,0.162341 0.53014,0.143669 0.0159,-0.0098 0.12216,0.0172 0.23619,0.06002 0.11404,0.04282 0.32164,0.120758 0.46134,0.173196 0.1397,0.05244 0.27209,0.11204 0.29421,0.132447 0.0221,0.02041 0.0793,0.03717 0.127,0.03725 0.0892,1.69e-4 0.68135,0.228148 0.76157,0.293242 0.0247,0.02003 0.17797,0.07728 0.34062,0.127224 0.16266,0.04994 0.48376,0.166237 0.71355,0.258431 0.22979,0.09219 0.44914,0.167569 0.48743,0.1675 0.0817,-1.27e-4 1.06188,0.380762 1.38195,0.537031 0.0699,0.0341 0.21272,0.09018 0.3175,0.124617 0.21324,0.07008 0.37057,0.140273 0.87975,0.392487 0.19282,0.09551 0.37453,0.173656 0.4038,0.173656 0.0293,0 0.12387,0.03602 0.21023,0.08005 0.0864,0.04403 0.20394,0.09183 0.26128,0.10622 0.0573,0.01439 0.26807,0.102194 0.46827,0.195115 0.20021,0.09292 0.38913,0.168946 0.41982,0.168946 0.0307,0 0.0795,0.02858 0.10852,0.0635 0.029,0.03493 0.0879,0.0635 0.13102,0.0635 0.0431,0 0.17886,0.046 0.30173,0.102222 0.73084,0.334398 1.53161,0.638079 1.58901,0.602605 0.0206,-0.01274 0.0693,0.01397 0.1081,0.05934 0.0388,0.04537 0.10329,0.0825 0.14319,0.0825 0.0399,0 0.25439,0.08759 0.47666,0.19465 0.22227,0.10706 0.52794,0.25284 0.67929,0.32397 0.15134,0.0711 0.3484,0.1645 0.43791,0.20751 0.0895,0.043 0.18801,0.0782 0.21888,0.0782 0.0309,0 0.27195,0.10216 0.53575,0.22702 0.26379,0.12485 0.59392,0.26984 0.73362,0.32219 0.32261,0.1209 0.61651,0.26115 0.68986,0.32921 0.0314,0.0291 0.0819,0.0529 0.11232,0.0529 0.0304,0 0.0806,0.0306 0.11165,0.0679 0.031,0.0374 0.0952,0.0853 0.14277,0.10646 0.0475,0.0212 0.14355,0.0762 0.2134,0.12214 0.0699,0.046 0.16986,0.1059 0.22225,0.13316 0.0731,0.0381 0.0953,0.0866 0.0953,0.20886 0,0.1213 0.0309,0.19024 0.12979,0.28907 0.13487,0.13487 0.1335,0.16517 -0.0148,0.33009 l -0.0841,0.0935 0.11159,0.0508 c 0.12316,0.0561 0.13856,0.12191 0.0587,0.25079 -0.0436,0.0704 -0.0418,0.0927 0.0106,0.1272 0.055,0.0362 0.0531,0.0479 -0.0142,0.0875 -0.0554,0.0326 -0.0703,0.0749 -0.052,0.14788 0.0272,0.10827 -0.0322,0.15131 -0.28261,0.20483 -0.08,0.0171 -0.14228,0.0765 -0.20108,0.19175 -0.0469,0.0918 -0.0852,0.18789 -0.0852,0.21347 0,0.0256 -0.0558,0.11682 -0.12406,0.20277 -0.0682,0.0859 -0.13677,0.22638 -0.15232,0.31208 -0.0155,0.0857 -0.055,0.16607 -0.0876,0.17859 -0.0326,0.0125 -0.0599,0.0472 -0.0606,0.077 -0.001,0.0574 -0.17505,0.41457 -0.43468,0.89384 -0.0862,0.1591 -0.1567,0.31626 -0.1567,0.34925 0,0.033 -0.0177,0.06 -0.0392,0.06 -0.0216,0 -0.0897,0.10953 -0.15145,0.24341 -0.0617,0.13388 -0.15166,0.32914 -0.19986,0.43392 -0.0482,0.10477 -0.10359,0.21907 -0.1231,0.254 -0.0195,0.0349 -0.1017,0.19685 -0.18265,0.35983 -0.081,0.16299 -0.17391,0.34396 -0.20656,0.40217 -0.0326,0.0582 -0.10935,0.21537 -0.17046,0.34925 -0.0611,0.13388 -0.12909,0.24342 -0.15106,0.24342 -0.022,0 -0.0519,0.0429 -0.0666,0.0953 -0.0428,0.1527 -0.12282,0.30421 -0.18004,0.34077 -0.0291,0.0186 -0.053,0.0609 -0.053,0.0939 0,0.0929 -0.16829,0.40345 -0.32461,0.59899 -0.0776,0.0971 -0.14106,0.19889 -0.14106,0.2263 0,0.0274 -0.0387,0.10421 -0.086,0.17067 -0.0473,0.0665 -0.13472,0.22179 -0.19421,0.3452 -0.14624,0.30333 -0.21318,0.42137 -0.25654,0.45234 -0.02,0.0143 -0.0597,0.0737 -0.0882,0.13187 -0.0769,0.15715 -0.18848,0.34335 -0.29574,0.49354 -0.0524,0.0734 -0.0953,0.14585 -0.0953,0.16112 0,0.0153 -0.0619,0.11084 -0.13758,0.2124 -0.16864,0.22631 -0.36358,0.54677 -0.55414,0.91094 -0.26187,0.50044 -0.37247,0.69611 -0.51849,0.91734 -0.0795,0.12036 -0.14445,0.23884 -0.14445,0.26328 0,0.0945 -0.40324,0.89371 -0.45091,0.89371 -0.0277,0 -0.0638,0.0612 -0.0802,0.13591 -0.0164,0.0747 -0.062,0.18429 -0.10137,0.24342 -0.0393,0.0591 -0.10971,0.16466 -0.15639,0.23451 -0.0467,0.0699 -0.13065,0.23834 -0.18661,0.37443 -0.056,0.1361 -0.14512,0.29424 -0.19813,0.35144 -0.053,0.0572 -0.0964,0.12734 -0.0964,0.15589 0,0.0285 -0.0263,0.0895 -0.0585,0.1354 -0.0321,0.0459 -0.11124,0.17875 -0.17575,0.29517 -0.0645,0.11642 -0.13089,0.22119 -0.14751,0.23283 -0.0166,0.0116 -0.0804,0.12773 -0.14171,0.25798 -0.0613,0.13024 -0.14959,0.27131 -0.19619,0.31347 -0.0466,0.0422 -0.0847,0.0938 -0.0847,0.11477 0,0.0982 -0.46013,1.04177 -0.58042,1.19028 -0.0533,0.0658 -0.0969,0.14383 -0.0969,0.17336 0,0.0295 -0.0381,0.0882 -0.0847,0.13031 -0.0466,0.0421 -0.0847,0.099 -0.0847,0.12624 0,0.0273 -0.12383,0.24241 -0.27517,0.47804 -0.15134,0.23563 -0.27517,0.45244 -0.27517,0.48179 0,0.0293 -0.0651,0.12084 -0.14457,0.20331 -0.12915,0.13396 -0.49043,0.78141 -0.49043,0.87892 0,0.0211 -0.0572,0.0931 -0.127,0.16003 -0.0699,0.0669 -0.127,0.14264 -0.127,0.16827 0,0.0256 -0.0564,0.11255 -0.12528,0.19316 -0.0689,0.0806 -0.12605,0.16163 -0.127,0.18004 -0.002,0.0478 -0.15481,0.25605 -0.43563,0.59551 -0.13388,0.16183 -0.24342,0.31828 -0.24342,0.34766 0,0.092 -0.31149,0.38656 -0.4445,0.4203 -0.17047,0.0432 -0.8255,0.0523 -0.8255,0.0114 0,-0.0178 -0.0619,-0.0324 -0.13758,-0.0324 l -0.13759,8e-5 v 0.83599 c 0,0.63162 -0.0141,0.85928 -0.0578,0.93125 -0.0318,0.0524 -0.0448,0.0952 -0.0289,0.0952 0.0159,0 -0.01,0.0541 -0.0567,0.12018 -0.0993,0.13946 -0.10896,0.45372 -0.0173,0.56224 0.0464,0.055 0.0479,0.0907 0.007,0.17992 -0.0387,0.085 -0.0391,0.13679 -0.002,0.21915 0.027,0.0593 0.0491,0.12549 0.0491,0.14708 0,0.0601 -0.23528,0.16831 -0.36831,0.16936 -0.0652,5.1e-4 -0.1979,0.037 -0.29492,0.081 -0.097,0.044 -0.32562,0.10334 -0.508,0.13175 -0.18238,0.0284 -0.34494,0.0634 -0.36123,0.0777 -0.0163,0.0143 -0.2068,0.0148 -0.42333,9.3e-4 -0.21654,-0.0138 -0.43528,-0.01 -0.4861,0.008 -0.0508,0.0185 -0.14606,0.0182 -0.21167,-4.8e-4 -0.11561,-0.033 -0.70096,-0.0213 -1.21994,0.0244 -0.1397,0.0123 -0.5969,0.0285 -1.016,0.036 -0.4191,0.007 -0.97436,0.0175 -1.23392,0.0223 -0.25956,0.005 -0.48946,0.0206 -0.51088,0.0351 -0.0214,0.0145 -0.11927,0.12888 -0.21743,0.25421 -0.1845,0.23556 -0.34862,0.38596 -0.42117,0.38596 -0.0229,0 -0.0527,0.0286 -0.0661,0.0635 -0.014,0.0364 -0.0771,0.0635 -0.14786,0.0635 -0.0679,0 -0.17806,0.0285 -0.24475,0.0632 -0.0667,0.0348 -0.16411,0.0634 -0.2165,0.0635 -0.0524,1.3e-4 -0.0952,0.0169 -0.0952,0.0372 0,0.0203 -0.0786,0.0495 -0.1747,0.0649 -0.0961,0.0154 -0.21463,0.0559 -0.26342,0.0901 -0.0488,0.0342 -0.1204,0.0621 -0.15913,0.0621 -0.0387,0 -0.12497,0.0285 -0.19166,0.0632 -0.0667,0.0348 -0.14983,0.0634 -0.18476,0.0635 -0.0666,3e-4 -0.45711,0.14103 -0.58284,0.21006 -0.0403,0.0221 -0.16858,0.0677 -0.28499,0.10129 -0.19265,0.0555 -0.5802,0.20254 -0.74222,0.2815 -0.0357,0.0174 -0.13094,0.0458 -0.21167,0.0631 -0.0807,0.0173 -0.1944,0.0547 -0.25261,0.083 -0.0582,0.0284 -0.30586,0.15028 -0.55034,0.27088 -0.24447,0.1206 -0.46171,0.219 -0.48274,0.21867 -0.021,-3.4e-4 -0.1398,0.0474 -0.26392,0.10616 -0.12412,0.0587 -0.28269,0.11817 -0.35239,0.13211 -0.0697,0.0139 -0.14852,0.0516 -0.17518,0.0837 -0.0267,0.0321 -0.0827,0.0584 -0.12452,0.0584 -0.0418,0 -0.12998,0.0285 -0.1959,0.0632 -0.0659,0.0348 -0.34385,0.15737 -0.61763,0.27239 -0.27379,0.11502 -0.54782,0.24848 -0.60896,0.29658 -0.0611,0.0481 -0.15623,0.0874 -0.2113,0.0874 -0.0551,0 -0.10012,0.0159 -0.10012,0.0354 0,0.0606 -1.38445,0.37228 -1.43388,0.32285 -0.0104,-0.0104 -0.0424,7.1e-4 -0.0712,0.0246 -0.0288,0.0239 -0.0687,0.0394 -0.0886,0.0345 -0.0199,-0.005 -0.18861,0.004 -0.37487,0.0208 -0.18627,0.0163 -0.4558,0.0401 -0.59896,0.0527 -0.14989,0.0132 -0.2711,0.005 -0.28579,-0.0183 z m 1.92191,-2.35463 c 0.40922,-0.21424 0.88539,-0.43002 1.20799,-0.54741 0.14052,-0.0511 0.30192,-0.12548 0.35867,-0.16523 0.0567,-0.0397 0.12504,-0.0723 0.15175,-0.0723 0.0881,0 0.85156,-0.26463 1.03155,-0.35755 0.0591,-0.0305 0.26947,-0.1172 0.46738,-0.1926 0.1979,-0.0754 0.4265,-0.16472 0.508,-0.19849 0.24294,-0.10071 0.30847,-0.12538 0.50547,-0.19029 0.10339,-0.0341 0.19393,-0.0798 0.2012,-0.10158 0.018,-0.0541 -0.16113,-0.16172 -0.19376,-0.11645 -0.0335,0.0465 -0.26707,0.0587 -0.32241,0.0168 -0.0233,-0.0176 -0.28046,-0.0341 -0.5715,-0.0365 -0.29105,-0.002 -0.52917,-0.006 -0.52917,-0.009 0,-0.002 -0.13335,-0.004 -0.29633,-0.004 -0.16299,1.2e-4 -0.42016,-3e-4 -0.5715,-9.8e-4 -0.15135,-6.7e-4 -0.52282,5.2e-4 -0.8255,0.003 -0.30269,0.002 -0.63486,0.004 -0.73817,0.005 -0.10331,4.9e-4 -0.21053,0.0197 -0.23827,0.0427 -0.0327,0.0271 -0.0881,0.0275 -0.15751,0.001 -0.0589,-0.0224 -0.42412,-0.0489 -0.81162,-0.0588 l -0.70454,-0.0181 0.0283,0.12891 c 0.0335,0.15231 0.34793,0.76381 0.40329,0.78419 0.0211,0.008 0.0383,0.0687 0.0383,0.13531 0,0.0667 0.0667,0.23497 0.14817,0.37402 0.0815,0.13904 0.14816,0.26287 0.14816,0.27516 0,0.0123 0.0671,0.1369 0.14918,0.27689 0.16823,0.28704 0.12002,0.28492 0.61282,0.0269 z m 7.32367,-3.93206 c 0.0582,3.4e-4 0.20108,0.006 0.3175,0.0119 0.11642,0.006 0.41169,-0.002 0.65617,-0.0174 0.69572,-0.0447 1.25284,-0.0475 1.73566,-0.009 0.58865,0.0474 0.77901,0.0488 1.62984,0.0117 0.39581,-0.0173 0.88612,-0.0306 1.08957,-0.0296 0.3489,0.002 0.37101,-0.004 0.38919,-0.0923 0.0688,-0.33556 0.0951,-1.41542 0.0416,-1.70272 -0.0494,-0.26488 -0.0832,-1.23567 -0.0493,-1.41816 0.0499,-0.26949 0.038,-1.45495 -0.0349,-3.45017 -0.0259,-0.70953 -0.0367,-2.17068 -0.0261,-3.52812 0.005,-0.59004 -0.003,-1.09109 -0.0168,-1.11344 -0.0138,-0.0224 -0.0314,-0.4487 -0.0392,-0.94742 -0.008,-0.49872 -0.0267,-0.92719 -0.0421,-0.95216 -0.0154,-0.025 -0.006,-0.0723 0.0216,-0.10519 0.0273,-0.0329 0.0394,-0.0763 0.027,-0.0964 -0.0124,-0.0201 -0.0219,-0.22574 -0.021,-0.45694 8.9e-4,-0.2312 0.001,-0.49656 0.001,-0.58969 -3e-4,-0.0931 3.4e-4,-0.27411 0.001,-0.40217 0.001,-0.12806 -1.2e-4,-0.27093 -0.003,-0.3175 -0.003,-0.0466 -0.007,-0.76596 -0.0102,-1.59864 -0.003,-0.84425 -0.0224,-1.52438 -0.0436,-1.53751 -0.0209,-0.0129 -0.0236,-0.046 -0.006,-0.0735 0.0437,-0.068 0.0768,-1.75464 0.0527,-2.68489 -0.003,-0.12205 -0.0214,-0.2316 -0.0406,-0.24346 -0.0192,-0.0118 -0.014,-0.0896 0.0115,-0.17279 0.0328,-0.10673 0.0332,-0.15965 10e-4,-0.17987 -0.0288,-0.0183 -0.0349,-0.11278 -0.0169,-0.26148 0.037,-0.30552 0.0288,-1.25882 -0.0112,-1.29885 -0.0599,-0.0599 -2.39423,-0.005 -2.49731,0.0589 -0.0241,0.0149 -0.11174,0.0302 -0.19467,0.0339 -0.3761,0.0171 -1.22327,0.0739 -1.35728,0.091 -0.37316,0.0478 -0.53348,0.0577 -1.22767,0.0758 -0.92046,0.024 -2.57277,0.10828 -3.3655,0.17171 -0.1397,0.0112 -0.60642,0.031 -1.03716,0.0441 -0.43074,0.013 -0.85937,0.033 -0.9525,0.0444 -0.67998,0.0831 -3.05351,0.083 -3.67813,-8e-5 -0.25879,-0.0344 -0.61341,-0.0684 -0.78804,-0.0756 -0.31249,-0.0129 -0.3176,-0.0114 -0.32391,0.0928 -0.004,0.0582 -0.009,0.11536 -0.0126,0.127 -0.0203,0.0696 -0.046,0.53492 -0.0664,1.20303 -0.0129,0.42101 -0.0335,0.8512 -0.0458,0.95597 -0.0123,0.10478 -0.022,0.45304 -0.0215,0.77391 5.4e-4,0.3602 -0.0146,0.57385 -0.0396,0.55842 -0.0222,-0.0137 -0.0404,-0.006 -0.0404,0.0163 0,0.0227 0.0224,0.0488 0.0499,0.0579 0.0526,0.0175 0.0625,0.78148 0.0178,1.36627 -0.0125,0.16298 -0.0322,0.72495 -0.0439,1.24883 -0.0117,0.52387 -0.0217,0.96202 -0.0224,0.97367 -0.006,0.10971 -0.0434,2.11606 -0.0404,2.18016 0.005,0.11276 0.002,0.17966 -0.018,0.381 -0.009,0.0931 -0.0223,0.60327 -0.029,1.13364 -0.009,0.68075 -0.0281,0.99507 -0.0664,1.06892 -0.0358,0.0689 -0.0388,0.10461 -0.009,0.10461 0.0436,0 0.0317,0.99752 -0.0321,2.68817 -0.0123,0.32596 -0.0309,0.84031 -0.0413,1.143 -0.0104,0.30268 -0.0316,0.71225 -0.0471,0.91016 -0.029,0.3713 -0.0359,0.53466 -0.0781,1.86267 -0.0223,0.70034 -0.047,1.33123 -0.082,2.0955 -0.006,0.1397 -0.0164,0.26352 -0.0221,0.27516 -0.0104,0.0209 -0.0253,0.31593 -0.0468,0.92328 -0.0107,0.30255 -0.008,0.31085 0.1108,0.37261 0.0765,0.0397 0.17733,0.0541 0.27144,0.0388 0.0823,-0.0134 0.2116,-0.006 0.28727,0.016 0.0757,0.0222 0.13758,0.0266 0.13758,0.01 0,-0.0238 2.8718,-0.0258 2.96334,-0.002 0.062,0.0161 0.7521,-0.008 0.81694,-0.0288 0.0419,-0.0133 0.10295,-0.002 0.13573,0.0254 0.0328,0.0272 0.0759,0.0394 0.0958,0.0271 0.0807,-0.0499 1.5651,-0.005 2.3594,0.0717 0.86603,0.0833 1.3673,0.11291 2.01083,0.11857 0.40746,0.004 0.82656,0.0203 0.93134,0.0372 0.10477,0.0169 0.21907,0.0202 0.254,0.007 0.0349,-0.0128 0.11112,-0.023 0.16933,-0.0226 z m 2.18369,-1.49894 c 0.003,-0.18044 -0.008,-0.46143 -0.0251,-0.62441 -0.0179,-0.17371 -0.0138,-0.31746 0.01,-0.3474 0.0222,-0.0281 0.0301,-0.0675 0.0177,-0.0876 -0.0314,-0.0509 -0.032,-0.84715 -7.3e-4,-1.01489 l 0.0256,-0.13758 h 1.25935 1.25935 l 0.0242,0.26458 c 0.0301,0.32906 0.0165,1.37149 -0.0183,1.4063 -0.0304,0.0304 -0.006,0.6791 0.0292,0.79141 0.0236,0.0742 -0.0336,0.0777 -1.28086,0.0777 h -1.30552 z m -13.58477,0.82815 c -0.0135,-0.0338 -0.0236,-0.0237 -0.0256,0.0256 -0.002,0.0446 0.008,0.0696 0.0222,0.0556 0.0141,-0.0141 0.0156,-0.0506 0.003,-0.0811 z m -0.47653,-2.21576 c 0.0795,-0.12134 0.0572,-0.1893 -0.0621,-0.1893 -0.0855,0 -0.15655,0.16921 -0.10563,0.25159 0.0438,0.0709 0.0922,0.0529 0.16771,-0.0623 z m 20.41864,-1.81343 c 0.0251,-0.0551 0.14245,-0.23283 0.26079,-0.39504 0.11835,-0.1622 0.21518,-0.31013 0.21518,-0.32873 0,-0.0186 0.0667,-0.12663 0.14817,-0.24006 0.0815,-0.11343 0.14816,-0.23331 0.14816,-0.26639 0,-0.0331 0.0444,-0.114 0.0986,-0.17982 0.0543,-0.0658 0.11153,-0.14824 0.12729,-0.18316 0.0158,-0.0349 0.0765,-0.1397 0.13494,-0.23284 0.0584,-0.0931 0.12301,-0.20821 0.14346,-0.25574 0.0205,-0.0475 0.0677,-0.11174 0.10505,-0.14272 0.0373,-0.031 0.14152,-0.20164 0.23157,-0.37926 0.0901,-0.17762 0.24247,-0.45599 0.33872,-0.61861 0.0963,-0.16261 0.17501,-0.31977 0.17501,-0.34925 0,-0.0295 0.019,-0.0536 0.0423,-0.0536 0.0233,0 0.0423,-0.0215 0.0423,-0.0478 0,-0.0639 0.37864,-0.83475 0.42371,-0.86261 0.0195,-0.012 0.0476,-0.0772 0.0625,-0.14488 0.0148,-0.0676 0.0539,-0.13329 0.0867,-0.1459 0.0587,-0.0225 0.15718,-0.18925 0.29687,-0.50273 0.0389,-0.0873 0.0855,-0.15875 0.10354,-0.15875 0.018,0 0.044,-0.0333 0.0577,-0.0741 0.0137,-0.0408 0.0421,-0.10266 0.0631,-0.13759 0.0211,-0.0349 0.0769,-0.1397 0.124,-0.23283 0.0818,-0.16159 0.15304,-0.29171 0.35333,-0.64545 0.0494,-0.0872 0.1256,-0.2041 0.16934,-0.2597 0.0437,-0.0556 0.0795,-0.13551 0.0795,-0.17756 0,-0.0421 0.019,-0.0882 0.0423,-0.10262 0.0233,-0.0144 0.0423,-0.0528 0.0423,-0.0853 0,-0.0325 0.0493,-0.13141 0.10961,-0.21975 0.0603,-0.0884 0.20462,-0.35024 0.32074,-0.58197 0.11611,-0.23174 0.25249,-0.47939 0.30304,-0.55034 0.0975,-0.13685 0.14607,-0.21935 0.34143,-0.58031 0.11332,-0.20939 0.66789,-1.06141 0.94617,-1.45368 0.0661,-0.0931 0.18134,-0.29316 0.25615,-0.4445 0.0748,-0.15134 0.18323,-0.35136 0.24092,-0.4445 0.0577,-0.0931 0.17144,-0.29644 0.25278,-0.45179 0.0813,-0.15536 0.18927,-0.35538 0.23982,-0.4445 0.0505,-0.0891 0.17751,-0.32397 0.28215,-0.52187 0.10463,-0.19791 0.21395,-0.38841 0.24293,-0.42334 0.029,-0.0349 0.13184,-0.23495 0.22858,-0.4445 0.0967,-0.20955 0.19395,-0.40957 0.21604,-0.4445 0.0221,-0.0349 0.099,-0.18732 0.17083,-0.33866 0.22115,-0.46565 0.42543,-0.85455 0.6115,-1.16417 0.0979,-0.16298 0.19296,-0.34396 0.21115,-0.40217 0.0182,-0.0582 0.0776,-0.15908 0.13199,-0.22416 0.0544,-0.0651 0.12269,-0.19842 0.15175,-0.29633 0.0291,-0.0979 0.0859,-0.24468 0.12634,-0.32617 0.0733,-0.14769 0.0731,-0.14847 -0.0388,-0.24102 -0.0618,-0.0511 -0.25623,-0.15281 -0.43213,-0.22609 -0.17589,-0.0733 -0.33791,-0.15056 -0.36002,-0.17173 -0.0221,-0.0212 -0.0649,-0.0385 -0.0951,-0.0385 -0.0302,0 -0.1992,-0.0667 -0.37562,-0.14816 -0.17642,-0.0815 -0.33131,-0.14817 -0.34419,-0.14817 -0.0129,0 -0.13766,-0.058 -0.27728,-0.129 -0.25827,-0.13124 -0.55202,-0.24914 -0.66678,-0.26763 -0.0349,-0.006 -0.12065,-0.0353 -0.1905,-0.0661 -0.0699,-0.0307 -0.1651,-0.0702 -0.21167,-0.0878 -0.23761,-0.0898 -0.48113,-0.18645 -0.61383,-0.24366 -0.0815,-0.0351 -0.20532,-0.0864 -0.27517,-0.11406 -0.0699,-0.0276 -0.21273,-0.0915 -0.3175,-0.142 -0.10478,-0.0505 -0.25718,-0.10431 -0.33867,-0.11959 -0.13132,-0.0246 -0.26361,-0.0825 -0.79375,-0.34707 -0.0757,-0.0378 -0.13758,-0.0845 -0.13758,-0.10387 0,-0.0194 -0.0188,-0.0236 -0.0419,-0.009 -0.023,0.0142 -0.10398,-9.1e-4 -0.17991,-0.0336 -0.0759,-0.0327 -0.2333,-0.0984 -0.34972,-0.14596 -0.11642,-0.0476 -0.35224,-0.1456 -0.52405,-0.21788 -0.17182,-0.0723 -0.33617,-0.13141 -0.36524,-0.13141 -0.0291,0 -0.0766,-0.0286 -0.10554,-0.0635 -0.029,-0.0349 -0.0861,-0.0635 -0.12692,-0.0635 -0.0653,0 -0.25262,-0.0729 -0.69858,-0.271659 -0.0699,-0.03114 -0.19368,-0.07991 -0.27517,-0.108385 -0.12721,-0.04445 -0.73106,-0.262144 -0.99483,-0.358656 -0.0466,-0.01704 -0.12277,-0.04704 -0.16934,-0.06668 -0.0466,-0.01963 -0.1561,-0.05983 -0.24341,-0.08933 -0.0873,-0.0295 -0.15879,-0.0641 -0.15884,-0.07688 -4e-5,-0.01279 -0.0554,-0.0271 -0.12303,-0.03181 -0.0676,-0.0047 -0.21786,-0.05436 -0.33388,-0.110325 -0.11601,-0.05597 -0.37021,-0.154254 -0.56488,-0.218416 -0.19468,-0.06416 -0.37301,-0.131379 -0.39629,-0.14937 -0.0233,-0.01799 -0.10901,-0.04659 -0.1905,-0.06356 -0.0815,-0.01697 -0.22503,-0.0654 -0.31897,-0.107627 -0.0939,-0.04223 -0.22271,-0.08981 -0.28615,-0.10573 -0.0634,-0.01592 -0.12582,-0.04589 -0.13861,-0.06659 -0.0128,-0.0207 -0.0673,-0.03764 -0.12109,-0.03764 -0.0538,0 -0.21936,-0.03993 -0.36792,-0.08873 -0.14855,-0.0488 -0.29867,-0.09301 -0.33359,-0.09824 -0.0349,-0.0052 -0.0921,-0.02091 -0.127,-0.03484 -0.0349,-0.01393 -0.11113,-0.03474 -0.16934,-0.04626 -0.0582,-0.01151 -0.29633,-0.09066 -0.52916,-0.17589 -0.23284,-0.08522 -0.47096,-0.17014 -0.52917,-0.188698 -0.0582,-0.01856 -0.17664,-0.07582 -0.26319,-0.127237 -0.0865,-0.05142 -0.17703,-0.08133 -0.20108,-0.06647 -0.024,0.01486 -0.0437,0.01028 -0.0437,-0.01018 0,-0.03755 -0.17168,-0.13576 -0.77402,-0.442805 -0.2522,-0.128556 -0.34292,-0.156854 -0.38661,-0.120593 -0.0528,0.04381 -0.21571,0.662112 -0.25175,0.955436 -0.009,0.06985 -0.0388,0.18415 -0.0671,0.254 -0.0284,0.06985 -0.10427,0.288925 -0.16873,0.486834 -0.0644,0.197908 -0.16259,0.445558 -0.2181,0.550333 -0.0555,0.104775 -0.10135,0.215111 -0.1019,0.24519 -5.5e-4,0.03008 -0.0199,0.06818 -0.043,0.08467 -0.0619,0.04424 -0.1478,0.209646 -0.1478,0.2847 0,0.05483 0.0665,0.06451 0.41275,0.06004 0.22701,-0.0029 0.4318,-3.81e-4 0.45508,0.0056 0.0233,0.006 0.091,-0.0028 0.15055,-0.01966 0.22126,-0.06265 1.13993,-0.136337 1.1815,-0.09477 0.0265,0.02654 0.10178,0.02288 0.21263,-0.01033 0.0944,-0.02827 0.18822,-0.04111 0.20858,-0.02853 0.0204,0.01258 0.13902,0.0014 0.26371,-0.02488 0.12468,-0.02626 0.67797,-0.05245 1.22953,-0.05819 0.8209,-0.0085 1.00689,1.7e-4 1.02525,0.048 0.0132,0.0344 0.0838,0.05845 0.17157,0.05845 0.10328,0 0.16539,0.02603 0.20201,0.08467 0.0291,0.04657 0.0816,0.08527 0.11677,0.08601 0.0939,0.002 0.22486,0.113037 0.19338,0.163975 -0.0446,0.07222 0.1046,0.258013 0.20726,0.258013 0.0579,0 0.11171,0.0385 0.13966,0.0998 0.0322,0.0706 0.0931,0.10745 0.20806,0.12584 0.15266,0.0244 0.31038,0.1466 0.31038,0.24047 0,0.023 0.018,0.0418 0.0401,0.0418 0.022,0 0.10908,0.10397 0.19342,0.23104 l 0.15336,0.23104 0.0161,1.28238 c 0.009,0.7053 0.0186,1.47425 0.0217,1.70876 0.003,0.23451 0.0203,0.45029 0.0384,0.4795 0.0181,0.0292 0.0168,0.13912 -0.003,0.24423 -0.0196,0.10511 -0.0368,0.63228 -0.0381,1.17149 -0.001,0.53922 -0.003,1.38044 -0.005,1.86939 -0.003,1.36351 -9.9e-4,1.72867 0.0199,2.9742 0.0106,0.63463 0.005,1.16281 -0.0128,1.17373 -0.0308,0.019 -0.0254,0.27423 0.0182,0.86857 0.0792,1.07886 0.10506,3.27922 0.0498,4.23334 -0.0155,0.26775 -0.0119,0.59715 0.008,0.73198 0.0199,0.13483 0.0216,0.25416 0.004,0.26517 -0.0178,0.011 -0.025,0.11025 -0.016,0.22052 0.0236,0.2887 0.0757,1.27884 0.10231,1.94674 0.003,0.0866 0.0699,0.0602 0.11881,-0.0472 z m -21.52093,-3.72811 c -0.0122,-0.0318 -0.006,-0.0679 0.0139,-0.0802 0.0199,-0.0123 0.0259,-0.12374 0.0135,-0.2477 -0.0125,-0.12396 -0.006,-0.42469 0.0137,-0.66829 0.0257,-0.31375 0.0224,-0.46526 -0.0115,-0.51956 -0.0328,-0.0525 -0.0346,-0.1015 -0.006,-0.15568 0.0246,-0.046 0.0525,-0.73152 0.0666,-1.63944 0.0134,-0.85823 0.034,-1.79854 0.0457,-2.08958 0.0117,-0.29104 0.029,-0.98636 0.0383,-1.54516 0.0325,-1.94378 0.0702,-2.76637 0.13112,-2.865 0.0131,-0.0212 0.005,-0.0617 -0.0188,-0.09 -0.0266,-0.0321 -0.0314,-0.18278 -0.0126,-0.40084 0.0165,-0.19218 0.0165,-0.36348 -1.3e-4,-0.38065 -0.0166,-0.0172 -0.0143,-0.11679 0.005,-0.22136 0.0194,-0.10458 0.0269,-0.2037 0.0167,-0.22027 -0.0102,-0.0166 -0.0266,-0.17677 -0.0364,-0.356 -0.0204,-0.37324 -0.0579,-0.43863 -0.19972,-0.34831 -0.0536,0.0341 -0.21173,0.0952 -0.35143,0.13572 -0.1397,0.0405 -0.3683,0.11103 -0.508,0.15669 -0.1397,0.0456 -0.30162,0.0901 -0.35983,0.0987 -0.15835,0.0235 -0.73259,0.19512 -0.78223,0.23383 -0.0238,0.0186 -0.0718,0.0336 -0.10677,0.0334 -0.0349,-1.7e-4 -0.1397,0.0338 -0.23283,0.0756 -0.0931,0.0418 -0.18839,0.0782 -0.21167,0.0811 -0.0819,0.01 -0.25617,0.0747 -0.46567,0.17305 -0.11641,0.0547 -0.2831,0.1124 -0.37041,0.12832 -0.18211,0.0332 -0.21024,0.12914 -0.074,0.25242 0.1253,0.11339 0.31641,0.54493 0.42205,0.95303 0.0929,0.35897 0.14803,0.53846 0.21427,0.69791 0.0194,0.0466 0.0448,0.14182 0.0565,0.21167 0.074,0.44117 0.26451,1.08442 0.40986,1.38411 0.0417,0.0861 0.0662,0.19344 0.0544,0.23864 -0.0118,0.0452 -7.8e-4,0.095 0.0245,0.11063 0.0253,0.0156 0.046,0.0836 0.046,0.15096 0,0.0674 0.0214,0.17579 0.0476,0.24091 0.0262,0.0651 0.0627,0.15651 0.0811,0.20308 0.0184,0.0466 0.0552,0.17803 0.0816,0.29214 0.0264,0.11412 0.0789,0.26652 0.11651,0.33867 0.0376,0.0722 0.0824,0.19786 0.0995,0.27936 0.0318,0.15172 0.0809,0.29988 0.21059,0.635 0.0405,0.10477 0.0872,0.27301 0.1037,0.37387 0.0165,0.10086 0.0562,0.2339 0.0882,0.29565 0.032,0.0618 0.079,0.21226 0.10438,0.33447 0.0254,0.12221 0.0639,0.23318 0.0856,0.2466 0.0217,0.0134 0.0391,0.0566 0.0387,0.096 -7.4e-4,0.0728 0.24998,0.88024 0.47577,1.53208 0.0685,0.19791 0.14063,0.44821 0.16018,0.55622 0.0195,0.10801 0.0537,0.23183 0.076,0.27516 0.0391,0.0761 0.0646,0.15804 0.17623,0.56562 0.0287,0.10478 0.0694,0.22358 0.0904,0.26401 0.021,0.0404 0.0382,0.10869 0.0382,0.1517 0,0.043 0.0122,0.0904 0.0271,0.10525 0.0437,0.0437 0.0982,-0.0105 0.074,-0.0735 z m 14.5039,-20.809761 c 0,-0.02328 -0.008,-0.04233 -0.0187,-0.04233 -0.0103,0 -0.0304,0.01905 -0.0448,0.04233 -0.0144,0.02328 -0.006,0.04233 0.0187,0.04233 0.0246,0 0.0448,-0.01905 0.0448,-0.04233 z"
       id="path348" /></g></svg>
